<svg width="16" height="16" viewBox="0 0 16 16" fill="none" xmlns="http://www.w3.org/2000/svg">
<path d="M14.6784 7.33125C14.4493 7.02719 13.5984 6.81781 13.2384 6.27063C12.8784 5.72344 12.5837 4.53844 11.6674 4.08313C10.7512 3.62781 8.99992 3.5 7.99992 3.5C6.99992 3.5 5.24992 3.625 4.33242 4.08219C3.41492 4.53938 3.12148 5.72344 2.76148 6.26969C2.40148 6.81594 1.55055 7.02719 1.32148 7.33125C1.09242 7.63531 0.931172 9.5575 1.0293 10.5C1.12742 11.4425 1.31055 12 1.31055 12H3.99805C4.43805 12 4.58117 11.8347 5.48117 11.75C6.46867 11.6562 7.43742 11.625 7.99992 11.625C8.56242 11.625 9.56242 11.6562 10.5493 11.75C11.4493 11.8353 11.5971 12 12.0324 12H14.6887C14.6887 12 14.8718 11.4425 14.9699 10.5C15.068 9.5575 14.9062 7.63531 14.6784 7.33125Z" stroke="#3F3F46" stroke-linecap="round" stroke-linejoin="round"/>
<path d="M14.25 12H12.5V12.5H14.25V12Z" stroke="#3F3F46" stroke-linecap="round" stroke-linejoin="round"/>
<path d="M3.5 12H1.75V12.5H3.5V12Z" stroke="#3F3F46" stroke-linecap="round" stroke-linejoin="round"/>
<path d="M11.3897 9.66125C11.205 9.44781 10.6031 9.26969 9.80623 9.15031C9.00936 9.03094 8.71873 9 8.00623 9C7.29373 9 6.96967 9.05125 6.20592 9.15031C5.44217 9.24937 4.86873 9.42563 4.62279 9.66125C4.25373 10.0188 4.79436 10.42 5.21873 10.4687C5.62998 10.5156 6.45217 10.4984 8.00967 10.4984C9.56717 10.4984 10.3894 10.5156 10.8006 10.4687C11.2244 10.4172 11.7262 10.0438 11.3897 9.66125Z" fill="#3F3F46"/>
<path d="M13.4865 7.59537C13.4848 7.57055 13.4739 7.54726 13.4561 7.52995C13.4382 7.51265 13.4145 7.50256 13.3897 7.50162C13.0206 7.4885 12.6459 7.51475 11.9812 7.71068C11.6421 7.80968 11.3237 7.96912 11.0412 8.18131C10.97 8.23693 10.9953 8.38725 11.0847 8.40318C11.6325 8.46744 12.1837 8.49979 12.7353 8.50006C13.0662 8.50006 13.4078 8.40631 13.4712 8.11131C13.5036 7.94122 13.5087 7.76708 13.4865 7.59537Z" fill="#3F3F46"/>
<path d="M2.51352 7.59537C2.51527 7.57055 2.52613 7.54726 2.54401 7.52995C2.56189 7.51265 2.58553 7.50256 2.61039 7.50162C2.97945 7.4885 3.35414 7.51475 4.01883 7.71068C4.35794 7.80968 4.67639 7.96912 4.95883 8.18131C5.03008 8.23693 5.00477 8.38725 4.91539 8.40318C4.36753 8.46744 3.81639 8.49979 3.26477 8.50006C2.93383 8.50006 2.59227 8.40631 2.52883 8.11131C2.49649 7.94122 2.49132 7.76708 2.51352 7.59537Z" fill="#3F3F46"/>
<path d="M13.5 6H14" stroke="#3F3F46" stroke-linecap="round" stroke-linejoin="round"/>
<path d="M2 6H2.5" stroke="#3F3F46" stroke-linecap="round" stroke-linejoin="round"/>
<path d="M2.4375 6.59375C2.4375 6.59375 3.88594 6.21875 8 6.21875C12.1141 6.21875 13.5625 6.59375 13.5625 6.59375" stroke="#3F3F46" stroke-linecap="round" stroke-linejoin="round"/>
</svg>
