<svg width="16" height="16" viewBox="0 0 16 16" fill="none" xmlns="http://www.w3.org/2000/svg">
<path d="M6.47455 2.42745C6.86203 2.09724 7.05578 1.93213 7.25835 1.83531C7.72687 1.61137 8.27154 1.61137 8.74006 1.83531C8.94263 1.93213 9.13637 2.09724 9.52386 2.42745C9.92277 2.7674 10.3282 2.93897 10.8615 2.98154C11.369 3.02203 11.6228 3.04228 11.8345 3.11706C12.3241 3.29001 12.7093 3.67515 12.8822 4.16479C12.957 4.37649 12.9772 4.63024 13.0177 5.13773C13.0603 5.6711 13.2319 6.07649 13.5718 6.4754C13.902 6.86289 14.0671 7.05663 14.164 7.2592C14.3879 7.72772 14.3879 8.27239 14.164 8.74092C14.0671 8.94348 13.902 9.13723 13.5718 9.52472C13.2248 9.93196 13.0594 10.3399 13.0177 10.8624C12.9772 11.3699 12.957 11.6236 12.8822 11.8353C12.7093 12.325 12.3241 12.7101 11.8345 12.8831C11.6228 12.9578 11.369 12.9781 10.8615 13.0186C10.3282 13.0611 9.92277 13.2327 9.52386 13.5727C9.13637 13.9029 8.94263 14.068 8.74006 14.1648C8.27154 14.3887 7.72687 14.3887 7.25835 14.1648C7.05578 14.068 6.86203 13.9029 6.47454 13.5727C6.0673 13.2256 5.65933 13.0603 5.13687 13.0186C4.62938 12.9781 4.37563 12.9578 4.16393 12.8831C3.67429 12.7101 3.28915 12.325 3.1162 11.8353C3.04143 11.6236 3.02118 11.3699 2.98068 10.8624C2.93812 10.329 2.76655 9.92363 2.4266 9.52472C2.09638 9.13723 1.93128 8.94348 1.83446 8.74092C1.61052 8.27239 1.61052 7.72772 1.83446 7.2592C1.93128 7.05663 2.09639 6.86289 2.4266 6.4754C2.77365 6.06815 2.93899 5.66018 2.98068 5.13773C3.02118 4.63024 3.04143 4.37649 3.1162 4.16479C3.28915 3.67515 3.67429 3.29001 4.16393 3.11706C4.37563 3.04228 4.62938 3.02203 5.13687 2.98154C5.67024 2.93897 6.07563 2.7674 6.47455 2.42745Z" stroke="#3F3F46" stroke-width="0.9999" stroke-linecap="round" stroke-linejoin="round"/>
<path d="M6.5682 6.56917L6.33252 6.3335" stroke="#3F3F46" stroke-width="0.9999" stroke-linecap="round" stroke-linejoin="round"/>
<path d="M9.66781 9.66891L9.43213 9.43323" stroke="#3F3F46" stroke-width="0.9999" stroke-linecap="round" stroke-linejoin="round"/>
<path d="M6.33252 9.6665L9.66552 6.3335" stroke="#3F3F46" stroke-width="0.9999" stroke-linecap="round" stroke-linejoin="round"/>
</svg>
