<svg width="16" height="16" viewBox="0 0 16 16" fill="none" xmlns="http://www.w3.org/2000/svg">
<path d="M11.3332 12.9999C11.3332 11.8953 9.84087 10.9999 7.99994 10.9999C6.15901 10.9999 4.66664 11.8953 4.66664 12.9999M13.9999 11.0002C13.9999 10.1801 13.1772 9.47522 11.9999 9.16661M2 11.0002C2 10.1801 2.82272 9.47522 3.99998 9.16661M11.9999 6.4907C12.4091 6.12449 12.6666 5.59231 12.6666 4.99998C12.6666 3.89542 11.7711 3 10.6666 3C10.1543 3 9.68709 3.19257 9.33326 3.50926M3.99998 6.4907C3.59082 6.12449 3.33332 5.59231 3.33332 4.99998C3.33332 3.89542 4.22874 3 5.3333 3C5.84553 3 6.31279 3.19257 6.66662 3.50926M7.99994 8.99994C6.89538 8.99994 5.99996 8.10452 5.99996 6.99996C5.99996 5.8954 6.89538 4.99998 7.99994 4.99998C9.1045 4.99998 9.99992 5.8954 9.99992 6.99996C9.99992 8.10452 9.1045 8.99994 7.99994 8.99994Z" stroke="#3F3F46" stroke-width="0.99999" stroke-linecap="round" stroke-linejoin="round"/>
</svg>
