<svg width="16" height="16" viewBox="0 0 16 16" fill="none" xmlns="http://www.w3.org/2000/svg">
<path fill-rule="evenodd" clip-rule="evenodd" d="M5 3.16667C5 3.02067 6.50533 2 8 2C9.49467 2 11 3.021 11 3.16667C11 3.68667 10.9447 3.99467 10.898 4.16233C10.867 4.27233 10.764 4.33333 10.6497 4.33333H5.35033C5.236 4.33333 5.133 4.27233 5.102 4.16233C5.05533 3.99467 5 3.68667 5 3.16667ZM7.5 3C7.41159 3 7.32681 3.03512 7.2643 3.09763C7.20179 3.16014 7.16667 3.24493 7.16667 3.33333C7.16667 3.42174 7.20179 3.50652 7.2643 3.56904C7.32681 3.63155 7.41159 3.66667 7.5 3.66667H8.5C8.58841 3.66667 8.67319 3.63155 8.7357 3.56904C8.79821 3.50652 8.83333 3.42174 8.83333 3.33333C8.83333 3.24493 8.79821 3.16014 8.7357 3.09763C8.67319 3.03512 8.58841 3 8.5 3H7.5Z" fill="#3F3F46"/>
<path fill-rule="evenodd" clip-rule="evenodd" d="M5.34622 6.406C4.23622 6.06267 4.51622 5.44933 4.93955 5H11.1536C11.4922 5.43267 11.6739 6.01633 10.6502 6.36567C10.6921 6.73701 10.6554 7.113 10.5426 7.46925C10.4298 7.82551 10.2433 8.15408 9.99539 8.43365C9.74743 8.71323 9.44348 8.93757 9.10326 9.09213C8.76303 9.24669 8.39411 9.32801 8.02043 9.33083C7.64675 9.33365 7.27665 9.2579 6.93413 9.10849C6.59161 8.95908 6.28431 8.73935 6.03217 8.46354C5.78003 8.18774 5.58867 7.86202 5.4705 7.5075C5.35233 7.15299 5.30999 6.7776 5.34622 6.40567V6.406ZM7.90955 6.66667C8.79022 6.66667 9.47289 6.62 9.99622 6.53867C10.0134 6.81044 9.97494 7.08286 9.88314 7.33924C9.79134 7.59561 9.64815 7.83054 9.46235 8.02962C9.27655 8.2287 9.05205 8.38774 8.80261 8.497C8.55317 8.60625 8.28405 8.66341 8.01173 8.66498C7.73942 8.66655 7.46966 8.61249 7.21898 8.50612C6.9683 8.39975 6.74198 8.2433 6.5539 8.04637C6.36581 7.84945 6.21993 7.61618 6.12518 7.36088C6.03043 7.10558 5.98882 6.83362 6.00289 6.56167C6.49055 6.629 7.11555 6.66667 7.90955 6.66667Z" fill="#3F3F46"/>
<path fill-rule="evenodd" clip-rule="evenodd" d="M10.8057 11.5333C10.5042 11.0629 10.0892 10.6759 9.59887 10.408C9.10857 10.14 8.55875 9.99974 8.00001 10C7.44104 9.99964 6.89098 10.14 6.40049 10.408C5.91 10.6761 5.49487 11.0633 5.19335 11.534C5.08144 11.3616 4.90957 11.2369 4.71101 11.184L4.06701 11.0117C3.85356 10.9544 3.62611 10.9843 3.43471 11.0948C3.2433 11.2053 3.1036 11.3872 3.04635 11.6007L2.78768 12.5667C2.75935 12.6724 2.75212 12.7826 2.76641 12.8911C2.78069 12.9997 2.81621 13.1043 2.87094 13.1991C2.92566 13.2938 2.99852 13.3769 3.08536 13.4435C3.17219 13.5102 3.27129 13.559 3.37701 13.5873L4.02068 13.76C4.12895 13.7892 4.242 13.7961 4.35302 13.7804C4.46404 13.7647 4.57074 13.7267 4.66668 13.6687C4.66694 13.7571 4.70232 13.8418 4.76502 13.9041C4.82772 13.9664 4.91261 14.0013 5.00101 14.001C5.08942 14.0007 5.1741 13.9654 5.23642 13.9027C5.29875 13.84 5.33361 13.7551 5.33335 13.6667V13.3333C5.33335 13.2063 5.34235 13.0813 5.35935 12.959L7.09401 13.424C7.17453 13.5963 7.30254 13.7422 7.46302 13.8443C7.6235 13.9465 7.80978 14.0007 8.00001 14.0007C8.19024 14.0007 8.37653 13.9465 8.537 13.8443C8.69748 13.7422 8.82549 13.5963 8.90601 13.424L10.6407 12.959C10.6577 13.0813 10.6667 13.2063 10.6667 13.3333V13.6667C10.6662 13.7551 10.7009 13.84 10.7631 13.9029C10.8253 13.9657 10.9099 14.0012 10.9983 14.0017C11.0868 14.0021 11.1717 13.9674 11.2345 13.9052C11.2974 13.843 11.3329 13.7584 11.3333 13.67C11.52 13.782 11.7507 13.821 11.9777 13.76L12.6217 13.5877C12.7274 13.5594 12.8265 13.5105 12.9133 13.4439C13.0002 13.3773 13.073 13.2942 13.1278 13.1994C13.1825 13.1046 13.218 13 13.2323 12.8915C13.2466 12.783 13.2393 12.6727 13.211 12.567L12.952 11.601C12.8948 11.3876 12.7551 11.2056 12.5637 11.0951C12.3722 10.9847 12.1448 10.9548 11.9313 11.012L11.2873 11.1843C11.0892 11.2371 10.9177 11.3613 10.8057 11.533V11.5333ZM5.53435 12.3157C5.71441 11.8802 6.00654 11.5001 6.38107 11.2141C6.75559 10.9281 7.19915 10.7464 7.66668 10.6873V12.057C7.51729 12.11 7.38261 12.1976 7.27367 12.3128C7.16474 12.4279 7.08466 12.5672 7.04001 12.7193L5.53435 12.316V12.3157ZM10.4657 12.3157C10.2856 11.8802 9.99344 11.5002 9.61892 11.2142C9.2444 10.9282 8.80086 10.7464 8.33334 10.6873V12.057C8.63468 12.1637 8.87001 12.4103 8.96001 12.7193L10.4657 12.316V12.3157ZM8.00001 13.3333C8.08842 13.3333 8.1732 13.2982 8.23571 13.2357C8.29823 13.1732 8.33334 13.0884 8.33334 13C8.33334 12.9116 8.29823 12.8268 8.23571 12.7643C8.1732 12.7018 8.08842 12.6667 8.00001 12.6667C7.91161 12.6667 7.82682 12.7018 7.76431 12.7643C7.7018 12.8268 7.66668 12.9116 7.66668 13C7.66668 13.0884 7.7018 13.1732 7.76431 13.2357C7.82682 13.2982 7.91161 13.3333 8.00001 13.3333Z" fill="#3F3F46"/>
</svg>
