<svg width="16" height="16" viewBox="0 0 16 16" fill="none" xmlns="http://www.w3.org/2000/svg">
<path d="M2 5.7285C2 4.71071 2 4.20182 2.26176 3.90501C2.35469 3.79963 2.46764 3.71528 2.59352 3.65726C3.53762 3.2221 4.77451 4.36779 5.7727 4.33248C5.90472 4.32781 6.03597 4.30959 6.16452 4.27811C7.6204 3.92156 8.53228 2.22527 10.03 2.01747C10.8881 1.8984 11.8298 2.41695 12.6323 2.69412C13.2924 2.92206 13.6224 3.03603 13.8111 3.30736C13.9999 3.5787 13.9999 3.9391 13.9999 4.65991V10.2742C13.9999 11.292 13.9999 11.8009 13.7381 12.0977C13.6452 12.2031 13.5322 12.2875 13.4064 12.3455C12.4623 12.7806 11.2254 11.635 10.2272 11.6703C10.0952 11.6749 9.96391 11.6931 9.83536 11.7246C8.37948 12.0812 7.4676 13.7775 5.96991 13.9853C5.11569 14.1038 2.73846 13.4856 2.18876 12.6954C2 12.424 2 12.0636 2 11.3428V5.7285Z" stroke="#3F3F46" stroke-width="0.99999" stroke-linecap="round" stroke-linejoin="round"/>
<path d="M6 4.36096V13.8642" stroke="#3F3F46" stroke-width="0.99999" stroke-linecap="round" stroke-linejoin="round"/>
<path d="M10 2.12085V11.6241" stroke="#3F3F46" stroke-width="0.99999" stroke-linecap="round" stroke-linejoin="round"/>
</svg>
