<svg width="12" height="3" viewBox="0 0 12 3" fill="none" xmlns="http://www.w3.org/2000/svg">
<path d="M5.99935 2.16671C6.36754 2.16671 6.66602 1.86823 6.66602 1.50004C6.66602 1.13185 6.36754 0.833374 5.99935 0.833374C5.63116 0.833374 5.33268 1.13185 5.33268 1.50004C5.33268 1.86823 5.63116 2.16671 5.99935 2.16671Z" stroke="#09090B" stroke-linecap="round" stroke-linejoin="round"/>
<path d="M10.666 2.16671C11.0342 2.16671 11.3327 1.86823 11.3327 1.50004C11.3327 1.13185 11.0342 0.833374 10.666 0.833374C10.2978 0.833374 9.99935 1.13185 9.99935 1.50004C9.99935 1.86823 10.2978 2.16671 10.666 2.16671Z" stroke="#09090B" stroke-linecap="round" stroke-linejoin="round"/>
<path d="M1.33268 2.16671C1.70087 2.16671 1.99935 1.86823 1.99935 1.50004C1.99935 1.13185 1.70087 0.833374 1.33268 0.833374C0.964492 0.833374 0.666016 1.13185 0.666016 1.50004C0.666016 1.86823 0.964492 2.16671 1.33268 2.16671Z" stroke="#09090B" stroke-linecap="round" stroke-linejoin="round"/>
</svg>
