<svg width="16" height="16" viewBox="0 0 16 16" fill="none" xmlns="http://www.w3.org/2000/svg">
<path d="M13.3332 4.66663H7.33317M9.33317 11.3333H3.33317M9.33317 11.3333C9.33317 12.4379 10.2286 13.3333 11.3332 13.3333C12.4377 13.3333 13.3332 12.4379 13.3332 11.3333C13.3332 10.2287 12.4377 9.33329 11.3332 9.33329C10.2286 9.33329 9.33317 10.2287 9.33317 11.3333ZM6.6665 4.66663C6.6665 5.7712 5.77107 6.66663 4.6665 6.66663C3.56193 6.66663 2.6665 5.7712 2.6665 4.66663C2.6665 3.56206 3.56193 2.66663 4.6665 2.66663C5.77107 2.66663 6.6665 3.56206 6.6665 4.66663Z" stroke="#3F3F46" stroke-linecap="round" stroke-linejoin="round"/>
</svg>
