<svg width="19" height="17" viewBox="0 0 19 17" fill="none" xmlns="http://www.w3.org/2000/svg">
<path d="M14.6414 16.2093C14.6014 16.2093 14.5618 16.199 14.5237 16.1787L9.81771 13.6696C9.7095 13.6119 9.58748 13.5814 9.46485 13.5814C9.34222 13.5814 9.2202 13.6119 9.11198 13.6696L4.40602 16.1787C4.36793 16.199 4.32832 16.2093 4.28828 16.2093C4.21468 16.2093 4.14175 16.174 4.09319 16.1149C4.05987 16.0744 4.02413 16.0058 4.04314 15.9096L5.04394 10.8456C5.09461 10.5892 5.00591 10.3208 4.81244 10.1451L0.941507 6.62902C0.831262 6.52888 0.859952 6.40402 0.871372 6.36814C0.882792 6.33226 0.931542 6.21379 1.07939 6.19579L6.37456 5.55115C6.62863 5.52022 6.84701 5.36427 6.95871 5.134L9.23992 0.431656C9.28271 0.343441 9.3668 0.290771 9.46485 0.290771C9.5629 0.290771 9.64698 0.343441 9.68978 0.431656L11.971 5.134C12.0827 5.36427 12.3011 5.52022 12.5551 5.55115L17.8503 6.19579C17.9982 6.21379 18.0469 6.33226 18.0583 6.36814C18.0697 6.40402 18.0984 6.52888 17.9882 6.62902L14.1173 10.1451C13.9238 10.3208 13.8351 10.5892 13.8858 10.8456L14.8866 15.9096C14.9056 16.0058 14.8698 16.0744 14.8365 16.1149C14.7879 16.174 14.715 16.2093 14.6414 16.2093Z" fill="#FDF239"/>
</svg>
