<svg width="16" height="16" viewBox="0 0 16 16" fill="none" xmlns="http://www.w3.org/2000/svg">
<path d="M8.66553 2.33386V6.66676L9.99873 5.42879L11.3319 6.66676V2.33386" stroke="#3F3F46" stroke-width="0.9999" stroke-linecap="round" stroke-linejoin="round"/>
<path d="M1.99951 6.26685C1.99951 4.77353 1.99951 4.02686 2.29013 3.45649C2.54577 2.95477 2.95368 2.54687 3.45539 2.29123C4.02577 2.00061 4.77243 2.00061 6.26575 2.00061H9.73207C11.2254 2.00061 11.9721 2.00061 12.5424 2.29123C13.0441 2.54687 13.4521 2.95477 13.7077 3.45649C13.9983 4.02686 13.9983 4.77353 13.9983 6.26685V9.73317C13.9983 11.2265 13.9983 11.9732 13.7077 12.5435C13.4521 13.0452 13.0441 13.4532 12.5424 13.7088C11.9721 13.9994 11.2254 13.9994 9.73207 13.9994H6.26575C4.77243 13.9994 4.02577 13.9994 3.45539 13.7088C2.95368 13.4532 2.54577 13.0452 2.29013 12.5435C1.99951 11.9732 1.99951 11.2265 1.99951 9.73317V6.26685Z" stroke="#3F3F46" stroke-width="0.9999" stroke-linecap="round" stroke-linejoin="round"/>
</svg>
