<svg width="25" height="25" viewBox="0 0 25 25" fill="none" xmlns="http://www.w3.org/2000/svg">
<path d="M0.657471 6.15747C0.657471 2.84376 3.34376 0.157471 6.65747 0.157471H18.6575C21.9712 0.157471 24.6575 2.84376 24.6575 6.15747V18.1575C24.6575 21.4712 21.9712 24.1575 18.6575 24.1575H6.65747C3.34376 24.1575 0.657471 21.4712 0.657471 18.1575V6.15747Z" fill="black"/>
<path d="M0.657471 6.15747C0.657471 2.84376 3.34376 0.157471 6.65747 0.157471H18.6575C21.9712 0.157471 24.6575 2.84376 24.6575 6.15747V18.1575C24.6575 21.4712 21.9712 24.1575 18.6575 24.1575H6.65747C3.34376 24.1575 0.657471 21.4712 0.657471 18.1575V6.15747Z" fill="black"/>
<path d="M21.8766 12.0896C21.8051 12.2241 21.7274 12.3701 21.6408 12.5257C21.5541 12.6865 21.4709 12.8399 21.3913 12.9862C21.3118 13.1327 21.2455 13.2533 21.1937 13.348C21.1798 13.3738 21.1662 13.4002 21.1523 13.426C21.1381 13.4547 21.1222 13.4813 21.1059 13.5066C21.092 13.5325 21.0784 13.5607 21.0641 13.5896C21.0465 13.6241 21.0286 13.6568 21.0114 13.6883C20.9937 13.7229 20.9768 13.7565 20.9595 13.7881C20.9419 13.8226 20.9227 13.8554 20.9029 13.8865C20.8853 13.9211 20.8673 13.9538 20.8501 13.9853C20.8197 14.0367 20.7852 14.0714 20.7461 14.0879C20.7093 14.1076 20.6729 14.1116 20.6374 14.1009C20.6044 14.0905 20.5752 14.0682 20.5505 14.0344C20.5282 14.004 20.5164 13.9658 20.5143 13.9199C20.5124 13.8736 20.5255 13.8238 20.5533 13.7721C20.5705 13.7407 20.5875 13.7077 20.6051 13.6733C20.6253 13.639 20.6458 13.6046 20.666 13.5703C20.6862 13.5361 20.7054 13.5016 20.723 13.467C20.7432 13.4329 20.7615 13.3999 20.7787 13.3685C20.793 13.3396 20.8062 13.3134 20.8171 13.2902C20.8306 13.2674 20.843 13.2446 20.8538 13.2215C20.8673 13.1987 20.8809 13.1723 20.8952 13.1435C20.9301 13.0774 20.9752 12.9956 21.0299 12.8983C21.085 12.798 21.1436 12.6889 21.2062 12.5712C21.2715 12.4538 21.337 12.3347 21.4026 12.2143C21.4286 12.1665 21.4526 12.1189 21.4772 12.0732C21.53 12.1084 21.5907 12.1329 21.6583 12.1382C21.7371 12.1444 21.8124 12.1259 21.8766 12.0896ZM22.1677 11.17C22.2089 11.1968 22.2349 11.2373 22.2464 11.2908C22.2606 11.3447 22.2493 11.4045 22.2119 11.4703C22.1842 11.5219 22.1548 11.5747 22.1241 11.629C22.1066 11.6629 22.0876 11.6964 22.0691 11.7305C22.0595 11.5852 21.9696 11.4599 21.8389 11.404C21.865 11.3552 21.8904 11.3094 21.9134 11.2658C21.9483 11.1998 21.9888 11.1604 22.0352 11.1479C22.0843 11.1358 22.1288 11.1435 22.1677 11.17Z" fill="#EBEBEB"/>
<path d="M21.1793 9.98724C21.7972 9.98097 22.3048 10.4787 22.3111 11.0966C22.3128 11.2683 22.2768 11.4336 22.2037 11.5878C22.2028 11.5897 22.2017 11.5919 22.2007 11.5937C22.0971 11.8058 21.8012 12.3182 21.4878 12.8603L21.3345 13.1259C21.3094 13.1695 21.2628 13.1966 21.2125 13.1972C21.162 13.1977 21.1145 13.172 21.0884 13.1288L20.9293 12.8661C20.6026 12.3265 20.2938 11.8163 20.188 11.6093C20.1112 11.4556 20.0716 11.2909 20.0699 11.1191C20.0637 10.5013 20.5615 9.99363 21.1793 9.98724ZM21.1461 10.5527C20.8442 10.553 20.5984 10.7986 20.5982 11.1005C20.5983 11.4025 20.8441 11.649 21.1461 11.6494C21.4483 11.6494 21.6948 11.4027 21.6949 11.1005C21.6947 10.7984 21.4482 10.5527 21.1461 10.5527Z" fill="white"/>
<g filter="url(#filter0_f_1374_26069)">
<path d="M7.72104 14.6531C7.39427 14.5634 6.79708 14.3108 6.57987 14.1181C6.32997 13.917 6.83155 13.6721 6.89089 13.6357C6.95021 13.5992 9.87204 12.056 10.3824 11.8157C10.8927 11.5754 12.5392 12.0132 12.9405 12.223C13.2677 12.3939 13.0429 12.5264 13.0008 12.5625C12.9587 12.5985 10.5286 14.0354 9.65327 14.4773C8.99036 14.812 8.36247 14.8292 7.72104 14.6531Z" fill="white" fill-opacity="0.2"/>
</g>
<path fill-rule="evenodd" clip-rule="evenodd" d="M10.0225 13.0542L9.69125 12.9106L9.69117 12.9108C9.68906 12.9099 9.68691 12.9089 9.68475 12.908C9.48753 12.8254 9.21439 13.0308 9.07467 13.3668C8.93495 13.7027 8.98155 14.042 9.17877 14.1246C9.18147 14.1258 9.18417 14.1268 9.1869 14.1279L9.50634 14.2665L9.6718 13.8779C9.71631 13.8157 9.75622 13.7443 9.78885 13.6659C9.81894 13.5935 9.84039 13.521 9.85356 13.451L10.0225 13.0542Z" fill="black"/>
<path d="M9.50774 14.2669C9.70496 14.3495 9.97802 14.1443 10.1176 13.8087C10.2572 13.473 10.2106 13.1339 10.0133 13.0513C9.81612 12.9687 9.54307 13.1739 9.40345 13.5096C9.26383 13.8452 9.31053 14.1843 9.50774 14.2669Z" fill="black"/>
<g filter="url(#filter1_d_1374_26069)">
<path d="M9.58197 14.115C9.72989 14.177 9.93469 14.0231 10.0394 13.7713C10.1441 13.5195 10.1091 13.2652 9.96119 13.2032C9.81327 13.1413 9.60847 13.2952 9.50375 13.547C9.39903 13.7987 9.43406 14.0531 9.58197 14.115Z" fill="url(#paint0_linear_1374_26069)"/>
</g>
<g filter="url(#filter2_di_1374_26069)">
<path fill-rule="evenodd" clip-rule="evenodd" d="M9.75112 13.3078C9.70988 13.3336 9.66953 13.3713 9.63342 13.4184L9.72184 13.5634C9.73278 13.5499 9.74461 13.5386 9.75676 13.5299L9.75112 13.3078ZM9.76376 13.8063C9.74572 13.8139 9.7278 13.8153 9.71186 13.8091L9.59355 14.0273C9.60009 14.0313 9.60695 14.0349 9.61414 14.0379C9.66134 14.0577 9.71552 14.051 9.76927 14.0234L9.76376 13.8063ZM9.78601 14.0141L9.78051 13.7974C9.79483 13.7883 9.80885 13.7755 9.82165 13.7597L9.9083 13.9019C9.87079 13.9503 9.82878 13.9887 9.78601 14.0141ZM9.77347 13.5198L9.76784 13.298C9.82365 13.2677 9.88023 13.2596 9.92928 13.2802C9.94298 13.2859 9.95551 13.2936 9.96684 13.3031L9.84744 13.5234C9.84306 13.5197 9.83822 13.5167 9.83294 13.5145C9.81484 13.5069 9.79409 13.5094 9.77347 13.5198ZM9.99428 13.7523C9.97345 13.8024 9.94784 13.8478 9.91926 13.8872L9.83258 13.7451C9.84225 13.731 9.85095 13.7151 9.85816 13.6977C9.85904 13.6956 9.85988 13.6935 9.8607 13.6914L10.0045 13.7262C10.0013 13.7349 9.9979 13.7436 9.99428 13.7523ZM9.71091 13.5781L9.62252 13.4332C9.59459 13.472 9.56957 13.5167 9.54913 13.5658C9.54499 13.5758 9.5411 13.5858 9.53748 13.5957L9.68315 13.631C9.68388 13.6291 9.68464 13.6272 9.68542 13.6254C9.69261 13.6081 9.70127 13.5922 9.71091 13.5781ZM10.0103 13.7101C10.0342 13.6402 10.0453 13.5713 10.0444 13.5094L9.87754 13.6118C9.87696 13.6318 9.8733 13.6533 9.86636 13.6753L10.0103 13.7101ZM9.67745 13.6471C9.66913 13.6731 9.66541 13.6987 9.66601 13.7217L9.49951 13.8239C9.49643 13.7593 9.50687 13.6862 9.53184 13.6119L9.67745 13.6471ZM9.50084 13.843L9.66758 13.7407C9.67129 13.7667 9.68133 13.7879 9.69716 13.8006L9.57958 14.0174C9.53471 13.9818 9.50786 13.9192 9.50084 13.843ZM10.0437 13.4899L9.87708 13.5922C9.87532 13.5702 9.86937 13.551 9.85951 13.5367L9.97966 13.3151C10.0176 13.3547 10.0395 13.4166 10.0437 13.4899Z" fill="#4C4C4C"/>
</g>
<path fill-rule="evenodd" clip-rule="evenodd" d="M10.0225 13.0472L9.69125 12.9037L9.69122 12.9038C9.68917 12.9028 9.68712 12.9019 9.68504 12.9011C9.48782 12.8185 9.21468 13.0239 9.07496 13.3598C8.93524 13.6958 8.98185 14.0351 9.17906 14.1177C9.18105 14.1185 9.18305 14.1193 9.18505 14.1201L9.50633 14.2596L9.67135 13.872C9.71616 13.8095 9.75633 13.7378 9.78914 13.6589C9.81941 13.5861 9.84093 13.5132 9.85408 13.4428L10.0225 13.0472Z" fill="black"/>
<path d="M10.1214 13.8086C9.98179 14.1442 9.70873 14.3494 9.51151 14.2668C9.3143 14.1842 9.2676 13.8452 9.40722 13.5095C9.54684 13.1738 9.82781 12.9505 10.025 13.0331C10.2222 13.1157 10.261 13.4729 10.1214 13.8086Z" fill="#2D2C2C"/>
<g filter="url(#filter3_d_1374_26069)">
<path d="M9.59167 14.1012C9.72973 14.1608 9.92071 14.0113 10.0182 13.7672C10.1157 13.5231 10.0829 13.2769 9.94481 13.2173C9.80675 13.1577 9.61577 13.3072 9.51826 13.5513C9.42074 13.7954 9.45361 14.0416 9.59167 14.1012Z" fill="url(#paint1_linear_1374_26069)"/>
</g>
<g filter="url(#filter4_di_1374_26069)">
<path fill-rule="evenodd" clip-rule="evenodd" d="M9.94384 13.7613C9.87534 13.915 9.75681 14.0117 9.66209 13.9936L9.73106 13.8245C9.7713 13.8223 9.81696 13.7836 9.84748 13.7243L9.94384 13.7613ZM9.96269 13.7139C10.0172 13.5585 10.0009 13.4066 9.92553 13.3475L9.85659 13.5166C9.8829 13.5493 9.88756 13.612 9.86691 13.6771L9.96269 13.7139ZM9.68291 13.6066C9.71448 13.5371 9.76684 13.4918 9.81123 13.4932L9.87971 13.3253C9.78148 13.3019 9.65567 13.4055 9.58701 13.5698L9.68291 13.6066ZM9.66577 13.6546L9.56926 13.6176C9.51942 13.7711 9.53864 13.9185 9.6154 13.9735L9.68391 13.8055C9.65636 13.7763 9.64919 13.7176 9.66577 13.6546Z" fill="#A9A8A8"/>
</g>
<path fill-rule="evenodd" clip-rule="evenodd" d="M12.4512 11.7541L12.1608 11.6868L12.1608 11.687C12.1589 11.6865 12.1571 11.6861 12.1552 11.6857C11.9828 11.648 11.7914 11.8555 11.7278 12.1492C11.6642 12.4429 11.7524 12.7116 11.9249 12.7493C11.9274 12.7499 11.9299 12.7504 11.9324 12.7508L12.212 12.8158L12.2886 12.4758C12.3156 12.4186 12.3374 12.3546 12.3523 12.2858C12.366 12.2224 12.3727 12.1602 12.373 12.1013L12.4512 11.7541Z" fill="black"/>
<path d="M12.213 12.8159C12.3854 12.8537 12.5767 12.6463 12.6403 12.3528C12.7039 12.0593 12.6156 11.7908 12.4431 11.7531C12.2707 11.7154 12.0793 11.9227 12.0158 12.2162C11.9522 12.5097 12.0405 12.7782 12.213 12.8159Z" fill="black"/>
<g filter="url(#filter5_d_1374_26069)">
<path d="M12.251 12.6815C12.3804 12.7098 12.5239 12.5543 12.5716 12.3342C12.6192 12.114 12.553 11.9127 12.4237 11.8844C12.2943 11.8561 12.1508 12.0116 12.1031 12.2317C12.0555 12.4518 12.1217 12.6532 12.251 12.6815Z" fill="url(#paint2_linear_1374_26069)"/>
</g>
<g filter="url(#filter6_di_1374_26069)">
<path fill-rule="evenodd" clip-rule="evenodd" d="M12.2684 12.0005C12.2387 12.0276 12.2115 12.0643 12.1891 12.108L12.2826 12.2127C12.2895 12.2001 12.2974 12.1891 12.306 12.1802L12.2684 12.0005ZM12.3527 12.4037C12.3392 12.4126 12.3248 12.4164 12.3109 12.4136L12.2472 12.6085C12.2531 12.6108 12.2592 12.6127 12.2654 12.6141C12.3068 12.6231 12.3498 12.6096 12.3894 12.5791L12.3527 12.4037ZM12.4016 12.5691L12.365 12.394C12.3753 12.3845 12.3848 12.372 12.3928 12.3573L12.4842 12.4597C12.461 12.5047 12.4326 12.5421 12.4016 12.5691ZM12.3181 12.1695L12.2805 11.9901C12.3213 11.9571 12.3661 11.9422 12.4089 11.9516C12.4209 11.9542 12.4323 11.9586 12.4429 11.9647L12.3786 12.1613C12.3745 12.159 12.3702 12.1574 12.3656 12.1563C12.3498 12.1529 12.3333 12.158 12.3181 12.1695ZM12.5318 12.3254C12.5223 12.3692 12.5083 12.4099 12.4909 12.4462L12.3995 12.3438C12.4053 12.3309 12.41 12.3166 12.4133 12.3014C12.4137 12.2996 12.4141 12.2977 12.4144 12.2959L12.5363 12.3027C12.535 12.3102 12.5335 12.3178 12.5318 12.3254ZM12.2759 12.2263L12.1825 12.1216C12.1655 12.1573 12.1519 12.1973 12.1426 12.2403C12.1407 12.249 12.139 12.2577 12.1375 12.2663L12.2612 12.2732C12.2615 12.2716 12.2619 12.27 12.2622 12.2684C12.2655 12.2533 12.2702 12.2391 12.2759 12.2263ZM12.5385 12.2888C12.5476 12.2285 12.5464 12.1709 12.5365 12.1208L12.4163 12.2287C12.4188 12.245 12.419 12.2631 12.4166 12.2819L12.5385 12.2888ZM12.259 12.2872C12.2561 12.3096 12.2569 12.3309 12.2608 12.3495L12.1406 12.4574C12.1285 12.4054 12.1261 12.3444 12.1353 12.2802L12.259 12.2872ZM12.1445 12.4727L12.2649 12.3647C12.2717 12.3852 12.283 12.401 12.2977 12.4089L12.2344 12.6026C12.1927 12.5804 12.1616 12.5336 12.1445 12.4727ZM12.533 12.1051L12.413 12.2128C12.4083 12.1952 12.4006 12.1805 12.3904 12.1703L12.4551 11.9725C12.4918 11.999 12.5187 12.0461 12.533 12.1051Z" fill="#4C4C4C"/>
</g>
<path fill-rule="evenodd" clip-rule="evenodd" d="M12.4524 11.7617L12.162 11.6944L12.162 11.6944C12.1602 11.694 12.1584 11.6936 12.1565 11.6931C11.984 11.6554 11.7927 11.8629 11.7291 12.1567C11.6655 12.4504 11.7537 12.7191 11.9262 12.7568C11.9278 12.7572 11.9295 12.7575 11.9311 12.7578L12.2132 12.8233L12.2898 12.4834C12.3168 12.4261 12.3387 12.3621 12.3536 12.2933C12.3673 12.2298 12.374 12.1675 12.3742 12.1085L12.4524 11.7617Z" fill="black"/>
<path d="M12.2131 12.823C12.3875 12.8612 12.581 12.6515 12.6452 12.3548C12.7095 12.058 12.6202 11.7865 12.4459 11.7484C12.2715 11.7102 12.078 11.9199 12.0138 12.2166C11.9495 12.5134 12.0388 12.7849 12.2131 12.823Z" fill="#2C2C2C"/>
<g filter="url(#filter7_d_1374_26069)">
<g filter="url(#filter8_d_1374_26069)">
<path d="M12.2398 12.6997C12.3595 12.7329 12.5058 12.5906 12.5667 12.3818C12.6275 12.173 12.5798 11.9769 12.4601 11.9437C12.3404 11.9105 12.1941 12.0528 12.1332 12.2616C12.0724 12.4704 12.1201 12.6665 12.2398 12.6997Z" fill="url(#paint3_linear_1374_26069)"/>
</g>
<g filter="url(#filter9_di_1374_26069)">
<path fill-rule="evenodd" clip-rule="evenodd" d="M12.512 12.3799C12.4732 12.513 12.3872 12.6076 12.3073 12.6072L12.3445 12.4605C12.377 12.4526 12.4096 12.4153 12.4278 12.3641L12.512 12.3799ZM12.5224 12.3377C12.5492 12.2046 12.5182 12.0846 12.4495 12.0476L12.4122 12.1944C12.4373 12.2172 12.4482 12.2667 12.4388 12.3219L12.5224 12.3377ZM12.2786 12.2916C12.2967 12.2308 12.3348 12.1866 12.3717 12.1815L12.4087 12.036C12.3248 12.0314 12.2329 12.1333 12.1953 12.2759L12.2786 12.2916ZM12.2699 12.3343L12.186 12.3184C12.1632 12.4491 12.1963 12.5647 12.2659 12.5978L12.3029 12.4524C12.2767 12.4331 12.2639 12.3872 12.2699 12.3343Z" fill="#A9A8A8"/>
</g>
</g>
<g filter="url(#filter10_ii_1374_26069)">
<path fill-rule="evenodd" clip-rule="evenodd" d="M8.14091 11.7006C8.1379 11.7032 8.13469 11.7057 8.13127 11.7077C8.11932 11.715 8.10857 11.7202 8.09896 11.723C7.97825 11.7587 6.97427 12.343 6.75801 12.573C6.54754 12.7969 6.56278 12.9272 6.56988 12.9876C6.57091 12.9964 6.5718 13.0036 6.5718 13.0095C6.57165 13.0389 6.57336 13.098 6.57557 13.1732C6.57683 13.2175 6.57831 13.2673 6.57964 13.32L6.58416 13.4989C6.58497 13.5122 6.58527 13.5259 6.58556 13.5398C6.58675 13.5989 6.58815 13.6632 6.62618 13.7327C6.67301 13.8184 6.8968 14.1313 7.95185 14.4336C8.30961 14.5361 8.71878 14.4018 8.9789 14.2861C9.08765 14.2424 9.16977 14.2008 9.21027 14.1794C9.2165 14.1761 9.22126 14.171 9.22425 14.165C9.22507 14.1633 9.22643 14.1618 9.22803 14.161C9.23044 14.1596 9.23182 14.1573 9.23197 14.1546C9.2367 14.0651 9.25469 13.939 9.2825 13.8127C9.3144 13.6763 9.35762 13.541 9.40658 13.4521C9.52158 13.2435 9.771 12.9835 9.97396 13.0478C10.2043 13.1209 10.1951 13.4497 10.1927 13.5282C10.192 13.5513 10.1897 13.5668 10.1875 13.582C10.1849 13.5994 10.1824 13.6165 10.1822 13.6443C10.1822 13.6456 10.1823 13.647 10.1824 13.6483C10.1826 13.6495 10.1827 13.6508 10.1827 13.652C10.1828 13.6566 10.1829 13.6617 10.1831 13.6674C10.1835 13.676 10.1928 13.6811 10.2004 13.6769C10.2032 13.6754 10.2065 13.6752 10.2096 13.6756C10.2165 13.6766 10.2238 13.6755 10.2306 13.6718L11.9752 12.7227C11.9844 12.7176 11.9909 12.7086 11.992 12.6981C11.9963 12.6592 11.995 12.6141 11.9936 12.5637V12.5637C11.9897 12.4247 11.9847 12.246 12.0907 12.049C12.1877 11.8689 12.3324 11.7477 12.4676 11.7864C12.6028 11.8251 12.643 11.9686 12.6523 12.0489C12.6615 12.1277 12.6591 12.2004 12.6577 12.2425V12.2425L12.6577 12.2425C12.6571 12.2594 12.6567 12.2714 12.6573 12.2769C12.6593 12.296 12.8482 12.1249 12.859 12.0613C12.8919 11.8676 12.8952 11.687 12.8704 11.4919C12.8664 11.4599 12.8525 11.3794 12.8427 11.3479C12.8412 11.3431 12.8404 11.3381 12.8406 11.3331C12.8429 11.2659 12.8287 11.1675 12.8093 11.1262C12.8075 11.1225 12.8058 11.1186 12.804 11.1145C12.7832 11.0668 12.7506 10.9922 12.5116 10.8925C12.1722 10.7509 11.25 10.44 11.2144 10.4331C11.1304 10.4168 11.0236 10.4274 10.9372 10.436C10.8864 10.4411 10.8427 10.4454 10.8147 10.4432C10.4101 10.4115 9.94377 10.479 9.33447 10.806C9.25271 10.8432 9.172 10.8853 9.09403 10.933C8.89924 11.0521 8.73579 11.1775 8.60014 11.2925C8.44179 11.4201 8.32009 11.5342 8.2327 11.6161C8.19615 11.6503 8.16562 11.679 8.14091 11.7006Z" fill="url(#paint4_linear_1374_26069)"/>
</g>
<g filter="url(#filter11_ddi_1374_26069)">
<path d="M9.77454 12.3598C9.99661 12.2612 10.115 11.953 10.4465 11.5871C10.4546 11.5781 10.4512 11.5637 10.4399 11.5595L9.0351 11.0362C9.03253 11.0353 9.02985 11.035 9.02719 11.0356C9.00257 11.0418 8.85973 11.0906 8.4716 11.4498C8.2765 11.6304 8.2377 11.6771 8.13637 11.7492C8.12034 11.7606 8.12379 11.7847 8.18495 11.8326C8.37991 11.9851 9.44616 12.5056 9.77454 12.3598Z" fill="url(#paint5_linear_1374_26069)"/>
</g>
<g filter="url(#filter12_di_1374_26069)">
<path d="M11.3275 11.1376C11.6202 11.0373 11.6961 11.0348 11.8994 11.0182C12.0394 11.0067 12.2624 11.0218 12.2883 11.0843C12.3141 11.1468 12.0498 11.3518 11.9399 11.4163C11.8861 11.4478 10.0301 12.4377 10.0871 12.3248C10.1572 12.1858 10.4863 11.7853 10.598 11.6223C10.7842 11.3506 11.0349 11.2379 11.3275 11.1376Z" fill="url(#paint6_linear_1374_26069)"/>
</g>
<g filter="url(#filter13_di_1374_26069)">
<path d="M11.9912 10.9349L10.7408 10.4622C10.7408 10.4622 10.7688 10.4712 10.9206 10.4651C10.9735 10.463 12.2714 10.9585 12.281 10.9665L11.9912 10.9349Z" fill="url(#paint7_linear_1374_26069)"/>
</g>
<g filter="url(#filter14_f_1374_26069)">
<path d="M9.22278 13.0538C9.69248 12.8208 9.95252 12.5367 10.2324 12.2759C9.38613 12.5504 7.61539 13.149 7.64427 13.1843C7.68037 13.2284 7.80991 13.2785 8.23658 13.2965C8.65664 13.3141 9.169 13.0805 9.22278 13.0538Z" fill="url(#paint8_linear_1374_26069)" fill-opacity="0.21"/>
</g>
<g filter="url(#filter15_f_1374_26069)">
<path d="M7.36077 12.046C7.38721 12.0231 7.71764 11.6627 7.96729 11.4812C7.76767 11.8964 7.31143 12.7995 7.26679 12.7962C7.21098 12.792 6.95508 12.7508 6.87563 12.5794C6.79743 12.4106 7.32771 12.0746 7.36077 12.046Z" fill="url(#paint9_linear_1374_26069)" fill-opacity="0.13"/>
</g>
<g filter="url(#filter16_di_1374_26069)">
<path d="M10.8974 12.349C10.8972 12.3425 10.9008 12.3364 10.9065 12.3334L11.0666 12.2505C11.0778 12.2447 11.0911 12.2526 11.0914 12.2651L11.092 12.2913C11.0922 12.2978 11.0886 12.3039 11.0828 12.3069L10.9227 12.3895C10.9116 12.3952 10.8983 12.3874 10.898 12.3748L10.8974 12.349Z" fill="#323232"/>
</g>
<g filter="url(#filter17_di_1374_26069)">
<path d="M11.7965 11.9244C11.7964 11.9179 11.7999 11.9118 11.8057 11.9089L11.9658 11.8259C11.9769 11.8201 11.9902 11.828 11.9905 11.8405L11.9912 11.8667C11.9914 11.8733 11.9878 11.8793 11.982 11.8823L11.8219 11.9649C11.8108 11.9707 11.7975 11.9628 11.7972 11.9503L11.7965 11.9244Z" fill="#323232"/>
</g>
<g filter="url(#filter18_f_1374_26069)">
<path d="M10.3669 13.5011L11.8881 12.7079C11.8965 12.7035 11.9026 12.6959 11.9051 12.6868C11.943 12.5477 12.0118 12.2817 12.012 12.226C12.0122 12.1538 10.1989 13.0736 10.2673 13.2351C10.3026 13.3185 10.3106 13.4004 10.3085 13.4606C10.3075 13.4901 10.3408 13.5147 10.3669 13.5011Z" fill="url(#paint10_linear_1374_26069)" fill-opacity="0.12"/>
</g>
<path d="M8.84391 12.1755L9.90721 11.3588C10.0321 11.3892 10.3177 11.5085 10.372 11.5273C10.4424 11.5517 10.4543 11.566 10.4543 11.566C10.4549 11.5871 10.4444 11.5966 10.4114 11.6303C10.364 11.6787 10.3441 11.7009 10.2278 11.8574C10.0603 12.0828 9.93382 12.2918 9.8088 12.3443C9.70934 12.3861 9.55353 12.4244 9.3287 12.3565C9.12773 12.2958 9.00317 12.2246 8.84391 12.1755Z" fill="#C4C4C4" fill-opacity="0.2"/>
<g opacity="0.17" filter="url(#filter19_f_1374_26069)">
<path d="M6.93854 12.8496C7.23963 13.0757 7.90474 13.3929 8.19922 13.4364" stroke="url(#paint11_linear_1374_26069)" stroke-width="0.560357" stroke-linecap="round" stroke-linejoin="round"/>
</g>
<g filter="url(#filter20_ddii_1374_26069)">
<path d="M6.71531 12.9405C6.65643 12.8651 6.67063 12.8032 6.67655 12.7064C6.67677 12.7038 6.67729 12.7009 6.67803 12.6984C6.70074 12.6216 6.59709 12.7826 6.58859 12.8924C6.58578 12.9288 6.58859 12.9471 6.5928 12.9805C6.5948 12.9958 6.62868 13.0885 6.62447 13.1088C6.62032 13.1291 6.63416 13.2679 6.63394 13.289C6.63379 13.31 6.72552 13.4643 6.95998 13.6093C7.15474 13.7298 7.4319 13.8051 7.46019 13.8084C7.4885 13.8117 7.51373 13.7164 7.53407 13.7107C7.58729 13.6957 7.74702 13.7498 7.80647 13.7631C7.87584 13.7787 8.0377 13.8146 8.21292 13.7876C8.42963 13.7541 8.46228 13.7285 8.6594 13.6146C8.78432 13.5424 8.87254 13.409 8.90859 13.3283C8.91834 13.3065 8.89847 13.2878 8.87598 13.2959C8.73845 13.3453 8.45505 13.455 8.13296 13.4963C7.65437 13.5577 7.26958 13.3392 7.21445 13.3078C6.98271 13.1758 6.8615 13.1279 6.71531 12.9405Z" fill="#272727"/>
</g>
<mask id="mask0_1374_26069" style="mask-type:alpha" maskUnits="userSpaceOnUse" x="6" y="12" width="3" height="2">
<path d="M6.71507 12.9396C6.66839 12.8798 6.66403 12.8089 6.67357 12.7462C6.67882 12.7121 6.64509 12.6942 6.62822 12.7243C6.5865 12.7989 6.56955 12.8618 6.56511 12.8964C6.5623 12.9328 6.56378 12.9558 6.568 12.9892C6.56992 13.0044 6.62829 13.0875 6.62415 13.1078C6.61993 13.1281 6.63369 13.267 6.63347 13.288C6.63332 13.3091 6.72499 13.4634 6.9593 13.6086C7.15399 13.7292 7.43109 13.8046 7.4594 13.808C7.4877 13.8114 7.51299 13.7161 7.53333 13.7103C7.58656 13.6953 7.74625 13.7495 7.8057 13.7629C7.87506 13.7786 8.03689 13.8146 8.21213 13.7876C8.42887 13.7543 8.46153 13.7288 8.65872 13.615C8.78369 13.5428 8.872 13.4094 8.90809 13.3288C8.91786 13.307 8.898 13.2883 8.8755 13.2964C8.73794 13.3457 8.45447 13.4552 8.13236 13.4963C7.65372 13.5574 7.26908 13.3387 7.21397 13.3073C6.98231 13.1751 6.86118 13.1271 6.71507 12.9396Z" fill="#999999"/>
</mask>
<g mask="url(#mask0_1374_26069)">
<g filter="url(#filter21_d_1374_26069)">
<path d="M8.56836 13.3676L7.92294 13.3937C7.92289 13.3938 7.92286 13.3939 7.92281 13.3941C7.92115 13.3993 7.91907 13.4069 7.91742 13.4161C7.91411 13.4346 7.91269 13.4591 7.91964 13.4843C7.9265 13.5092 7.94168 13.5353 7.97253 13.5572C8.00359 13.5792 8.0512 13.5975 8.12351 13.6054C8.16648 13.61 8.22569 13.6083 8.28624 13.5952C8.34683 13.5821 8.40785 13.5578 8.45523 13.518C8.48086 13.4965 8.51191 13.4545 8.5371 13.4167C8.54955 13.398 8.56033 13.3808 8.56799 13.3682C8.56812 13.368 8.56823 13.3678 8.56836 13.3676Z" stroke="white" stroke-opacity="0.9" stroke-width="0.0252659"/>
</g>
<g filter="url(#filter22_d_1374_26069)">
<path d="M6.67629 12.7394C6.67621 12.7395 6.67614 12.7396 6.67607 12.7397C6.67044 12.7504 6.66334 12.7657 6.65794 12.7843C6.64714 12.8215 6.64307 12.8713 6.66889 12.9234C6.67629 12.9383 6.68642 12.948 6.69663 12.9518C6.7061 12.9554 6.71742 12.9546 6.72992 12.9446C6.73858 12.9377 6.75071 12.9347 6.76174 12.9333C6.77328 12.9319 6.78593 12.9319 6.79739 12.9325C6.80228 12.9327 6.80701 12.9331 6.81152 12.9335L6.67629 12.7394Z" stroke="white" stroke-opacity="0.9" stroke-width="0.0252659"/>
</g>
</g>
<path d="M3.10019 10.8328C3.1264 10.9077 3.15635 11.0051 3.19005 11.1249C3.22749 11.2409 3.2668 11.3626 3.30798 11.4899C3.34916 11.6172 3.38473 11.7351 3.41468 11.8437C3.46335 12.0009 3.51202 12.1675 3.56069 12.3435C3.61311 12.5195 3.65991 12.6786 3.70109 12.8209C3.74602 12.9594 3.77784 13.0586 3.79656 13.1185C3.80779 13.1559 3.81715 13.1915 3.82464 13.2252C3.83587 13.2589 3.84523 13.2907 3.85272 13.3207C3.86395 13.3469 3.87331 13.3731 3.8808 13.3993C3.88829 13.4218 3.89577 13.4442 3.90326 13.4667C3.91075 13.4854 3.91637 13.5022 3.92011 13.5172C3.92385 13.5322 3.9276 13.5453 3.93134 13.5565C3.93508 13.5678 3.93883 13.5753 3.94257 13.579C3.94632 13.5827 3.94819 13.5846 3.94819 13.5846C3.95193 13.5809 3.95568 13.5753 3.95942 13.5678C3.96316 13.5565 3.96691 13.5434 3.97065 13.5285C3.9744 13.5135 3.97814 13.4948 3.98188 13.4723C3.98937 13.4498 3.99686 13.4255 4.00435 13.3993C4.01183 13.3693 4.01932 13.3394 4.02681 13.3094C4.0343 13.2757 4.04179 13.242 4.04927 13.2084C4.06051 13.1709 4.07174 13.1335 4.08297 13.096C4.09046 13.0586 4.10543 12.9968 4.1279 12.9107C4.15036 12.8246 4.17469 12.7254 4.2009 12.6131C4.22711 12.5008 4.25332 12.3903 4.27952 12.2817C4.30948 12.1694 4.33381 12.0721 4.35253 11.9897C4.37125 11.9261 4.38997 11.8549 4.40869 11.7763C4.42741 11.6977 4.44613 11.6153 4.46485 11.5292C4.48731 11.4431 4.50977 11.3532 4.53224 11.2596C4.55845 11.166 4.58278 11.0725 4.60524 10.9789C4.62771 10.8815 4.66515 10.8104 4.71756 10.7655C4.77372 10.7168 4.83175 10.6924 4.89165 10.6924C4.95156 10.6924 5.00771 10.7168 5.06013 10.7655C5.11629 10.8141 5.1556 10.8871 5.17806 10.9845C5.20053 11.0818 5.22299 11.1773 5.24545 11.2709C5.27166 11.3645 5.29412 11.4543 5.31284 11.5404C5.33531 11.6228 5.35403 11.7014 5.369 11.7763C5.38772 11.8512 5.40457 11.9186 5.41954 11.9785C5.4495 12.0983 5.48319 12.2368 5.52063 12.3941C5.56181 12.5476 5.59925 12.6917 5.63295 12.8265C5.67039 12.9575 5.69659 13.0511 5.71157 13.1073C5.71906 13.1447 5.72842 13.1821 5.73965 13.2196C5.75088 13.2533 5.76024 13.2888 5.76773 13.3263C5.77896 13.36 5.78832 13.3937 5.79581 13.4274C5.8033 13.4573 5.81078 13.4854 5.81827 13.5116C5.82576 13.5341 5.83137 13.5528 5.83512 13.5678C5.83886 13.5827 5.84073 13.5958 5.84073 13.6071C5.84448 13.6183 5.84635 13.6258 5.84635 13.6295C5.85009 13.6333 5.85197 13.6333 5.85197 13.6295C5.85571 13.6258 5.85945 13.6202 5.8632 13.6127C5.86694 13.6015 5.87069 13.5865 5.87443 13.5678C5.88192 13.549 5.88941 13.5266 5.89689 13.5004C5.90438 13.4742 5.91187 13.4461 5.91936 13.4161C5.93059 13.3824 5.94182 13.3487 5.95305 13.3151C5.96428 13.2776 5.97551 13.242 5.98675 13.2084C5.99798 13.1747 6.00921 13.141 6.02044 13.1073C6.03542 13.0549 6.05788 12.9818 6.08783 12.8882C6.11778 12.7909 6.15148 12.6805 6.18892 12.5569C6.22636 12.4296 6.26567 12.2986 6.30685 12.1638C6.34803 12.0253 6.38735 11.8905 6.42478 11.7595C6.45848 11.6434 6.49217 11.5292 6.52587 11.4169C6.55956 11.3046 6.59139 11.1997 6.62134 11.1024C6.65503 11.0013 6.68311 10.9115 6.70558 10.8328C6.73553 10.743 6.78046 10.6831 6.84036 10.6531C6.904 10.6194 6.96765 10.6138 7.0313 10.6363C7.09494 10.655 7.14361 10.6943 7.17731 10.7542C7.21475 10.8141 7.21849 10.889 7.18854 10.9789C7.16608 11.0575 7.13987 11.1473 7.10992 11.2484C7.07997 11.3458 7.04814 11.4487 7.01445 11.5573C6.9845 11.6621 6.95268 11.7669 6.91898 11.8718C6.8778 12.014 6.83849 12.1488 6.80105 12.2761C6.76361 12.3997 6.72804 12.5176 6.69435 12.6299C6.66065 12.7422 6.62696 12.8527 6.59326 12.9613C6.55956 13.0698 6.52587 13.1784 6.49217 13.287C6.47346 13.3431 6.45474 13.4012 6.43602 13.4611C6.42104 13.521 6.40419 13.5827 6.38547 13.6464C6.36675 13.7063 6.34616 13.7699 6.3237 13.8373C6.30124 13.901 6.27877 13.9684 6.25631 14.0395C6.23384 14.1106 6.20764 14.1836 6.17769 14.2585C6.15148 14.3334 6.11217 14.3933 6.05975 14.4382C6.01108 14.4832 5.9568 14.5131 5.89689 14.5281C5.83699 14.5431 5.77709 14.5431 5.71719 14.5281C5.66103 14.5168 5.61048 14.4888 5.56556 14.4438C5.52437 14.3989 5.49442 14.3409 5.4757 14.2697C5.46073 14.1949 5.44388 14.1237 5.42516 14.0563C5.41018 13.9852 5.39334 13.9178 5.37462 13.8542C5.35964 13.7868 5.34467 13.7213 5.32969 13.6576C5.31472 13.594 5.29787 13.5303 5.27915 13.4667C5.26417 13.403 5.2492 13.3394 5.23422 13.2757C5.2155 13.1971 5.19304 13.111 5.16683 13.0174C5.14062 12.9201 5.11254 12.8152 5.08259 12.7029C5.05639 12.5906 5.02643 12.4689 4.99274 12.3379C4.95904 12.2069 4.92348 12.0665 4.88604 11.9167C4.85983 11.8081 4.82613 11.7164 4.78495 11.6415C4.74377 11.5629 4.70446 11.4918 4.66702 11.4281C4.63332 11.3645 4.60899 11.2971 4.59401 11.226C4.57904 11.1548 4.58278 11.0725 4.60524 10.9789C4.62771 10.8815 4.66515 10.8104 4.71756 10.7655C4.77372 10.7168 4.83175 10.6924 4.89165 10.6924C4.95156 10.6924 5.00771 10.7168 5.06013 10.7655C5.11629 10.8141 5.1556 10.8871 5.17806 10.9845C5.20053 11.0818 5.20427 11.166 5.18929 11.2372C5.17432 11.3046 5.14998 11.3682 5.11629 11.4281C5.08259 11.488 5.04515 11.5554 5.00397 11.6303C4.96279 11.7052 4.92909 11.7969 4.90289 11.9055C4.86545 12.0552 4.82988 12.1956 4.79618 12.3267C4.76249 12.4577 4.73067 12.5794 4.70071 12.6917C4.67451 12.804 4.6483 12.9088 4.62209 13.0062C4.59963 13.0998 4.57904 13.1859 4.56032 13.2645C4.54534 13.3282 4.52849 13.3899 4.50977 13.4498C4.4948 13.5097 4.47795 13.5696 4.45923 13.6295C4.44426 13.6894 4.42741 13.7512 4.40869 13.8149C4.38997 13.8785 4.37125 13.9459 4.35253 14.017C4.33381 14.0882 4.31322 14.1649 4.29076 14.2473C4.26829 14.3297 4.2346 14.3952 4.18967 14.4438C4.14474 14.4925 4.0942 14.5243 4.03804 14.5393C3.98563 14.5543 3.93134 14.5543 3.87518 14.5393C3.81902 14.5243 3.76848 14.4944 3.72355 14.4495C3.67863 14.4008 3.64493 14.339 3.62247 14.2641C3.6 14.1893 3.57754 14.1181 3.55508 14.0507C3.53636 13.9833 3.51577 13.9197 3.4933 13.8598C3.47458 13.7961 3.45586 13.7344 3.43714 13.6745C3.41843 13.6146 3.39971 13.5547 3.38099 13.4948C3.36227 13.4311 3.34355 13.3675 3.32483 13.3038C3.28739 13.1765 3.24621 13.0417 3.20128 12.8995C3.1601 12.7572 3.11704 12.6112 3.07211 12.4614C3.02719 12.3079 2.98226 12.1544 2.93733 12.0009C2.90364 11.8886 2.8662 11.7688 2.82502 11.6415C2.78383 11.5142 2.74452 11.3926 2.70708 11.2765C2.67339 11.1567 2.64344 11.0575 2.61723 10.9789C2.59102 10.889 2.59477 10.8141 2.62846 10.7542C2.66216 10.6943 2.71083 10.655 2.77447 10.6363C2.83812 10.6138 2.90177 10.6194 2.96541 10.6531C3.02906 10.6831 3.07399 10.743 3.10019 10.8328ZM15.3086 12.2986C15.2412 12.2686 15.1738 12.2424 15.1064 12.22C15.039 12.1975 14.9716 12.1806 14.9043 12.1694C14.8406 12.1582 14.777 12.1526 14.7133 12.1526C14.6272 12.1526 14.5467 12.1638 14.4718 12.1863C14.397 12.2087 14.3352 12.2443 14.2865 12.293C14.2416 12.3379 14.2191 12.3978 14.2191 12.4727C14.2191 12.5213 14.2397 12.5663 14.2809 12.6075C14.3221 12.6449 14.3745 12.6786 14.4381 12.7085C14.5018 12.7385 14.5673 12.7666 14.6347 12.7928C14.7021 12.8152 14.762 12.834 14.8144 12.8489C14.9941 12.9088 15.157 12.9762 15.303 13.0511C15.4527 13.1222 15.5707 13.214 15.6568 13.3263C15.7466 13.4386 15.7916 13.5827 15.7916 13.7587C15.7916 13.9197 15.7485 14.062 15.6624 14.1855C15.5763 14.3053 15.4584 14.3989 15.3086 14.4663C15.1626 14.53 14.9922 14.5618 14.7976 14.5618C14.6478 14.5618 14.4906 14.5393 14.3258 14.4944C14.1611 14.4495 13.9982 14.3839 13.8372 14.2978C13.7511 14.2529 13.6987 14.1967 13.68 14.1294C13.665 14.062 13.6725 13.9983 13.7025 13.9384C13.7362 13.8785 13.7848 13.8373 13.8485 13.8149C13.9159 13.7924 13.9907 13.8036 14.0731 13.8486C14.1555 13.8935 14.2378 13.9309 14.3202 13.9609C14.4026 13.9908 14.4831 14.0152 14.5617 14.0339C14.6441 14.0489 14.7227 14.0563 14.7976 14.0563C14.8837 14.0563 14.9623 14.047 15.0334 14.0283C15.1083 14.0058 15.1682 13.974 15.2131 13.9328C15.2618 13.8879 15.2861 13.8298 15.2861 13.7587C15.2861 13.6801 15.2506 13.6146 15.1794 13.5622C15.1083 13.506 15.0222 13.4611 14.9211 13.4274C14.8238 13.3899 14.7358 13.3581 14.6572 13.3319C14.4812 13.272 14.3221 13.2084 14.1798 13.141C14.0375 13.0698 13.9234 12.9837 13.8372 12.8826C13.7549 12.7778 13.7137 12.6411 13.7137 12.4727C13.7137 12.3079 13.7567 12.1638 13.8429 12.0403C13.929 11.9167 14.0469 11.8212 14.1967 11.7538C14.3464 11.6827 14.5186 11.6471 14.7133 11.6471C14.8406 11.6471 14.9735 11.664 15.112 11.6977C15.2506 11.7276 15.391 11.7782 15.5332 11.8493C15.6156 11.8905 15.6661 11.9448 15.6849 12.0122C15.7073 12.0758 15.7036 12.1376 15.6736 12.1975C15.6474 12.2574 15.6006 12.3005 15.5332 12.3267C15.4696 12.3529 15.3947 12.3435 15.3086 12.2986ZM16.4144 14.2754C16.4144 14.1967 16.4144 14.1125 16.4144 14.0227C16.4144 13.9328 16.4144 13.8429 16.4144 13.7531C16.4144 13.6632 16.4144 13.579 16.4144 13.5004C16.4144 13.2009 16.4144 12.8733 16.4144 12.5176C16.4144 12.1619 16.4144 11.7613 16.4144 11.3158C16.4144 11.2147 16.4144 11.0968 16.4144 10.962C16.4144 10.8272 16.4144 10.7055 16.4144 10.597C16.4144 10.5034 16.4388 10.4322 16.4874 10.3836C16.5399 10.3349 16.5998 10.3106 16.6672 10.3106C16.7345 10.3106 16.7926 10.3349 16.8412 10.3836C16.8937 10.4322 16.9199 10.5034 16.9199 10.597C16.9199 10.6868 16.9199 10.7711 16.9199 10.8497C16.9199 10.9246 16.9199 11.0013 16.9199 11.0799C16.9199 11.1548 16.9199 11.2334 16.9199 11.3158C16.9199 11.5142 16.9199 11.7258 16.9199 11.9504C16.9199 12.175 16.9199 12.4165 16.9199 12.6748C16.9199 12.9294 16.9199 13.2046 16.9199 13.5004C16.9199 13.594 16.9199 13.682 16.9199 13.7643C16.9199 13.8467 16.9199 13.9291 16.9199 14.0114C16.9199 14.0938 16.9199 14.1818 16.9199 14.2754C16.9199 14.369 16.8937 14.4401 16.8412 14.4888C16.7926 14.5374 16.7345 14.5618 16.6672 14.5618C16.5998 14.5618 16.5399 14.5374 16.4874 14.4888C16.4388 14.4401 16.4144 14.369 16.4144 14.2754ZM19.6854 14.2754C19.6854 14.1967 19.6854 14.1144 19.6854 14.0283C19.6854 13.9384 19.6854 13.8504 19.6854 13.7643C19.6854 13.6745 19.6854 13.5921 19.6854 13.5172C19.6854 13.4274 19.6854 13.3282 19.6854 13.2196C19.6854 13.1073 19.6854 12.9856 19.6854 12.8546C19.6854 12.6973 19.6592 12.5681 19.6067 12.4671C19.5581 12.3622 19.4851 12.2836 19.3877 12.2312C19.2904 12.1788 19.1706 12.1526 19.0283 12.1526C18.9048 12.1526 18.7924 12.1732 18.6914 12.2143C18.5903 12.2518 18.5023 12.3079 18.4274 12.3828C18.3563 12.4577 18.3001 12.5513 18.2589 12.6636C18.2178 12.7759 18.1972 12.9051 18.1972 13.0511C18.1972 13.1148 18.1972 13.199 18.1972 13.3038C18.1972 13.4049 18.1972 13.5135 18.1972 13.6295C18.1972 13.7456 18.1972 13.8617 18.1972 13.9777C18.1972 14.09 18.1972 14.1893 18.1972 14.2754C18.1972 14.3502 18.1803 14.412 18.1466 14.4607C18.1129 14.5056 18.0699 14.5356 18.0175 14.5505C17.9688 14.5655 17.9182 14.5655 17.8658 14.5505C17.8172 14.5356 17.776 14.5056 17.7423 14.4607C17.7086 14.412 17.6917 14.3502 17.6917 14.2754C17.6917 14.2042 17.6917 14.1088 17.6917 13.989C17.6917 13.8654 17.6917 13.7325 17.6917 13.5902C17.6917 13.4442 17.6917 13.3038 17.6917 13.169C17.6917 13.0305 17.6917 12.9107 17.6917 12.8096C17.6917 12.7085 17.6917 12.6393 17.6917 12.6018C17.6917 12.527 17.6917 12.4521 17.6917 12.3772C17.6917 12.3023 17.6917 12.2274 17.6917 12.1526C17.6917 12.0777 17.6917 12.0028 17.6917 11.9279C17.6917 11.8343 17.7161 11.7632 17.7647 11.7145C17.8172 11.6659 17.8771 11.6415 17.9445 11.6415C18.0118 11.6415 18.0699 11.6659 18.1185 11.7145C18.171 11.7632 18.1972 11.8343 18.1972 11.9279C18.1972 12.0103 18.1972 12.0871 18.1972 12.1582C18.1972 12.2293 18.1972 12.3005 18.1972 12.3716C18.1972 12.4427 18.1972 12.5195 18.1972 12.6018C18.1972 12.6243 18.1972 12.6861 18.1972 12.7872C18.1972 12.8845 18.1972 13.0043 18.1972 13.1466C18.1972 13.2851 18.1972 13.4292 18.1972 13.579C18.1972 13.725 18.1972 13.8617 18.1972 13.989C18.1972 14.1125 18.1972 14.208 18.1972 14.2754C18.1972 14.3502 18.1803 14.412 18.1466 14.4607C18.1129 14.5056 18.0699 14.5356 18.0175 14.5505C17.9688 14.5655 17.9182 14.5655 17.8658 14.5505C17.8172 14.5356 17.776 14.5056 17.7423 14.4607C17.7086 14.412 17.6917 14.3502 17.6917 14.2754C17.6917 14.1893 17.6917 14.0994 17.6917 14.0058C17.6917 13.9085 17.6917 13.8092 17.6917 13.7082C17.6917 13.6071 17.6917 13.506 17.6917 13.4049C17.6917 13.3001 17.6917 13.2009 17.6917 13.1073C17.6917 12.9163 17.7254 12.7329 17.7928 12.5569C17.864 12.3809 17.9613 12.2256 18.0849 12.0908C18.2084 11.9523 18.3544 11.8437 18.5229 11.7651C18.6914 11.6865 18.8729 11.6471 19.0676 11.6471C19.2286 11.6471 19.3765 11.6733 19.5113 11.7258C19.6498 11.7782 19.7696 11.8568 19.8707 11.9616C19.9718 12.0627 20.0504 12.1881 20.1066 12.3379C20.1627 12.4876 20.1908 12.6599 20.1908 12.8546C20.1908 12.9407 20.1908 13.0399 20.1908 13.1522C20.1908 13.2608 20.1908 13.3824 20.1908 13.5172C20.1908 13.6108 20.1908 13.6988 20.1908 13.7812C20.1908 13.8598 20.1908 13.9384 20.1908 14.017C20.1908 14.0957 20.1908 14.1818 20.1908 14.2754C20.1908 14.369 20.1646 14.4401 20.1122 14.4888C20.0635 14.5374 20.0055 14.5618 19.9381 14.5618C19.8707 14.5618 19.8108 14.5374 19.7584 14.4888C19.7097 14.4401 19.6854 14.369 19.6854 14.2754Z" fill="white"/>
<defs>
<filter id="filter0_f_1374_26069" x="6.43652" y="11.6716" width="6.7527" height="3.16603" filterUnits="userSpaceOnUse" color-interpolation-filters="sRGB">
<feFlood flood-opacity="0" result="BackgroundImageFix"/>
<feBlend mode="normal" in="SourceGraphic" in2="BackgroundImageFix" result="shape"/>
<feGaussianBlur stdDeviation="0.0369899" result="effect1_foregroundBlur_1374_26069"/>
</filter>
<filter id="filter1_d_1374_26069" x="9.43487" y="13.1811" width="0.673475" height="0.956067" filterUnits="userSpaceOnUse" color-interpolation-filters="sRGB">
<feFlood flood-opacity="0" result="BackgroundImageFix"/>
<feColorMatrix in="SourceAlpha" type="matrix" values="0 0 0 0 0 0 0 0 0 0 0 0 0 0 0 0 0 0 127 0" result="hardAlpha"/>
<feOffset/>
<feGaussianBlur stdDeviation="0.00424513"/>
<feComposite in2="hardAlpha" operator="out"/>
<feColorMatrix type="matrix" values="0 0 0 0 0 0 0 0 0 0 0 0 0 0 0 0 0 0 0.25 0"/>
<feBlend mode="normal" in2="BackgroundImageFix" result="effect1_dropShadow_1374_26069"/>
<feBlend mode="normal" in="SourceGraphic" in2="effect1_dropShadow_1374_26069" result="shape"/>
</filter>
<filter id="filter2_di_1374_26069" x="9.47355" y="13.2671" width="0.575975" height="0.799196" filterUnits="userSpaceOnUse" color-interpolation-filters="sRGB">
<feFlood flood-opacity="0" result="BackgroundImageFix"/>
<feColorMatrix in="SourceAlpha" type="matrix" values="0 0 0 0 0 0 0 0 0 0 0 0 0 0 0 0 0 0 127 0" result="hardAlpha"/>
<feOffset dy="0.0033961"/>
<feGaussianBlur stdDeviation="0.00254708"/>
<feColorMatrix type="matrix" values="0 0 0 0 1 0 0 0 0 1 0 0 0 0 1 0 0 0 0.41 0"/>
<feBlend mode="normal" in2="BackgroundImageFix" result="effect1_dropShadow_1374_26069"/>
<feBlend mode="normal" in="SourceGraphic" in2="effect1_dropShadow_1374_26069" result="shape"/>
<feColorMatrix in="SourceAlpha" type="matrix" values="0 0 0 0 0 0 0 0 0 0 0 0 0 0 0 0 0 0 127 0" result="hardAlpha"/>
<feOffset dx="-0.0254708" dy="0.0169805"/>
<feGaussianBlur stdDeviation="0.0127354"/>
<feComposite in2="hardAlpha" operator="arithmetic" k2="-1" k3="1"/>
<feColorMatrix type="matrix" values="0 0 0 0 0 0 0 0 0 0 0 0 0 0 0 0 0 0 0.25 0"/>
<feBlend mode="normal" in2="shape" result="effect2_innerShadow_1374_26069"/>
</filter>
<filter id="filter3_d_1374_26069" x="9.4411" y="13.1832" width="0.65417" height="0.952144" filterUnits="userSpaceOnUse" color-interpolation-filters="sRGB">
<feFlood flood-opacity="0" result="BackgroundImageFix"/>
<feColorMatrix in="SourceAlpha" type="matrix" values="0 0 0 0 0 0 0 0 0 0 0 0 0 0 0 0 0 0 127 0" result="hardAlpha"/>
<feOffset/>
<feGaussianBlur stdDeviation="0.0105275"/>
<feComposite in2="hardAlpha" operator="out"/>
<feColorMatrix type="matrix" values="0 0 0 0 0 0 0 0 0 0 0 0 0 0 0 0 0 0 0.25 0"/>
<feBlend mode="normal" in2="BackgroundImageFix" result="effect1_dropShadow_1374_26069"/>
<feBlend mode="normal" in="SourceGraphic" in2="effect1_dropShadow_1374_26069" result="shape"/>
</filter>
<filter id="filter4_di_1374_26069" x="9.51482" y="13.3202" width="0.489028" height="0.693453" filterUnits="userSpaceOnUse" color-interpolation-filters="sRGB">
<feFlood flood-opacity="0" result="BackgroundImageFix"/>
<feColorMatrix in="SourceAlpha" type="matrix" values="0 0 0 0 0 0 0 0 0 0 0 0 0 0 0 0 0 0 127 0" result="hardAlpha"/>
<feOffset dy="0.00718061"/>
<feGaussianBlur stdDeviation="0.00448788"/>
<feColorMatrix type="matrix" values="0 0 0 0 1 0 0 0 0 1 0 0 0 0 1 0 0 0 0.59 0"/>
<feBlend mode="normal" in2="BackgroundImageFix" result="effect1_dropShadow_1374_26069"/>
<feBlend mode="normal" in="SourceGraphic" in2="effect1_dropShadow_1374_26069" result="shape"/>
<feColorMatrix in="SourceAlpha" type="matrix" values="0 0 0 0 0 0 0 0 0 0 0 0 0 0 0 0 0 0 127 0" result="hardAlpha"/>
<feOffset dx="-0.0269273" dy="0.0179515"/>
<feGaussianBlur stdDeviation="0.0134637"/>
<feComposite in2="hardAlpha" operator="arithmetic" k2="-1" k3="1"/>
<feColorMatrix type="matrix" values="0 0 0 0 0 0 0 0 0 0 0 0 0 0 0 0 0 0 0.25 0"/>
<feBlend mode="normal" in2="shape" result="effect2_innerShadow_1374_26069"/>
</filter>
<filter id="filter5_d_1374_26069" x="12.0806" y="11.874" width="0.51329" height="0.817856" filterUnits="userSpaceOnUse" color-interpolation-filters="sRGB">
<feFlood flood-opacity="0" result="BackgroundImageFix"/>
<feColorMatrix in="SourceAlpha" type="matrix" values="0 0 0 0 0 0 0 0 0 0 0 0 0 0 0 0 0 0 127 0" result="hardAlpha"/>
<feOffset/>
<feGaussianBlur stdDeviation="0.00350568"/>
<feComposite in2="hardAlpha" operator="out"/>
<feColorMatrix type="matrix" values="0 0 0 0 0 0 0 0 0 0 0 0 0 0 0 0 0 0 0.25 0"/>
<feBlend mode="normal" in2="BackgroundImageFix" result="effect1_dropShadow_1374_26069"/>
<feBlend mode="normal" in="SourceGraphic" in2="effect1_dropShadow_1374_26069" result="shape"/>
</filter>
<filter id="filter6_di_1374_26069" x="12.1086" y="11.9475" width="0.44028" height="0.683394" filterUnits="userSpaceOnUse" color-interpolation-filters="sRGB">
<feFlood flood-opacity="0" result="BackgroundImageFix"/>
<feColorMatrix in="SourceAlpha" type="matrix" values="0 0 0 0 0 0 0 0 0 0 0 0 0 0 0 0 0 0 127 0" result="hardAlpha"/>
<feOffset dy="0.00280455"/>
<feGaussianBlur stdDeviation="0.00210341"/>
<feColorMatrix type="matrix" values="0 0 0 0 1 0 0 0 0 1 0 0 0 0 1 0 0 0 0.41 0"/>
<feBlend mode="normal" in2="BackgroundImageFix" result="effect1_dropShadow_1374_26069"/>
<feBlend mode="normal" in="SourceGraphic" in2="effect1_dropShadow_1374_26069" result="shape"/>
<feColorMatrix in="SourceAlpha" type="matrix" values="0 0 0 0 0 0 0 0 0 0 0 0 0 0 0 0 0 0 127 0" result="hardAlpha"/>
<feOffset dx="-0.0210341" dy="0.0140227"/>
<feGaussianBlur stdDeviation="0.010517"/>
<feComposite in2="hardAlpha" operator="arithmetic" k2="-1" k3="1"/>
<feColorMatrix type="matrix" values="0 0 0 0 0 0 0 0 0 0 0 0 0 0 0 0 0 0 0.25 0"/>
<feBlend mode="normal" in2="shape" result="effect2_innerShadow_1374_26069"/>
</filter>
<filter id="filter7_d_1374_26069" x="12.0856" y="11.9178" width="0.528438" height="0.807857" filterUnits="userSpaceOnUse" color-interpolation-filters="sRGB">
<feFlood flood-opacity="0" result="BackgroundImageFix"/>
<feColorMatrix in="SourceAlpha" type="matrix" values="0 0 0 0 0 0 0 0 0 0 0 0 0 0 0 0 0 0 127 0" result="hardAlpha"/>
<feOffset/>
<feGaussianBlur stdDeviation="0.0105275"/>
<feComposite in2="hardAlpha" operator="out"/>
<feColorMatrix type="matrix" values="0 0 0 0 0 0 0 0 0 0 0 0 0 0 0 0 0 0 0.25 0"/>
<feBlend mode="normal" in2="BackgroundImageFix" result="effect1_dropShadow_1374_26069"/>
<feBlend mode="normal" in="SourceGraphic" in2="effect1_dropShadow_1374_26069" result="shape"/>
</filter>
<filter id="filter8_d_1374_26069" x="12.1004" y="11.9325" width="0.498948" height="0.778367" filterUnits="userSpaceOnUse" color-interpolation-filters="sRGB">
<feFlood flood-opacity="0" result="BackgroundImageFix"/>
<feColorMatrix in="SourceAlpha" type="matrix" values="0 0 0 0 0 0 0 0 0 0 0 0 0 0 0 0 0 0 127 0" result="hardAlpha"/>
<feOffset/>
<feGaussianBlur stdDeviation="0.00315507"/>
<feComposite in2="hardAlpha" operator="out"/>
<feColorMatrix type="matrix" values="0 0 0 0 0 0 0 0 0 0 0 0 0 0 0 0 0 0 0.25 0"/>
<feBlend mode="normal" in2="BackgroundImageFix" result="effect1_dropShadow_1374_26069"/>
<feBlend mode="normal" in="SourceGraphic" in2="effect1_dropShadow_1374_26069" result="shape"/>
</filter>
<filter id="filter9_di_1374_26069" x="12.152" y="12.0341" width="0.38893" height="0.591036" filterUnits="userSpaceOnUse" color-interpolation-filters="sRGB">
<feFlood flood-opacity="0" result="BackgroundImageFix"/>
<feColorMatrix in="SourceAlpha" type="matrix" values="0 0 0 0 0 0 0 0 0 0 0 0 0 0 0 0 0 0 127 0" result="hardAlpha"/>
<feOffset dy="0.00718061"/>
<feGaussianBlur stdDeviation="0.00448788"/>
<feColorMatrix type="matrix" values="0 0 0 0 1 0 0 0 0 1 0 0 0 0 1 0 0 0 0.59 0"/>
<feBlend mode="normal" in2="BackgroundImageFix" result="effect1_dropShadow_1374_26069"/>
<feBlend mode="normal" in="SourceGraphic" in2="effect1_dropShadow_1374_26069" result="shape"/>
<feColorMatrix in="SourceAlpha" type="matrix" values="0 0 0 0 0 0 0 0 0 0 0 0 0 0 0 0 0 0 127 0" result="hardAlpha"/>
<feOffset dx="-0.0269273" dy="0.0179515"/>
<feGaussianBlur stdDeviation="0.0134637"/>
<feComposite in2="hardAlpha" operator="arithmetic" k2="-1" k3="1"/>
<feColorMatrix type="matrix" values="0 0 0 0 0 0 0 0 0 0 0 0 0 0 0 0 0 0 0.25 0"/>
<feBlend mode="normal" in2="shape" result="effect2_innerShadow_1374_26069"/>
</filter>
<filter id="filter10_ii_1374_26069" x="6.56641" y="10.2561" width="6.44664" height="4.21397" filterUnits="userSpaceOnUse" color-interpolation-filters="sRGB">
<feFlood flood-opacity="0" result="BackgroundImageFix"/>
<feBlend mode="normal" in="SourceGraphic" in2="BackgroundImageFix" result="shape"/>
<feColorMatrix in="SourceAlpha" type="matrix" values="0 0 0 0 0 0 0 0 0 0 0 0 0 0 0 0 0 0 127 0" result="hardAlpha"/>
<feOffset dx="0.126329" dy="-0.168439"/>
<feGaussianBlur stdDeviation="0.505319"/>
<feComposite in2="hardAlpha" operator="arithmetic" k2="-1" k3="1"/>
<feColorMatrix type="matrix" values="0 0 0 0 0 0 0 0 0 0 0 0 0 0 0 0 0 0 0.07 0"/>
<feBlend mode="normal" in2="shape" result="effect1_innerShadow_1374_26069"/>
<feColorMatrix in="SourceAlpha" type="matrix" values="0 0 0 0 0 0 0 0 0 0 0 0 0 0 0 0 0 0 127 0" result="hardAlpha"/>
<feOffset dy="-0.021055"/>
<feGaussianBlur stdDeviation="0.0421098"/>
<feComposite in2="hardAlpha" operator="arithmetic" k2="-1" k3="1"/>
<feColorMatrix type="matrix" values="0 0 0 0 0 0 0 0 0 0 0 0 0 0 0 0 0 0 0.09 0"/>
<feBlend mode="normal" in2="effect1_innerShadow_1374_26069" result="effect2_innerShadow_1374_26069"/>
</filter>
<filter id="filter11_ddi_1374_26069" x="8.09421" y="11.0098" width="2.3737" height="1.40104" filterUnits="userSpaceOnUse" color-interpolation-filters="sRGB">
<feFlood flood-opacity="0" result="BackgroundImageFix"/>
<feColorMatrix in="SourceAlpha" type="matrix" values="0 0 0 0 0 0 0 0 0 0 0 0 0 0 0 0 0 0 127 0" result="hardAlpha"/>
<feOffset dx="-0.0169805" dy="0.0084903"/>
<feGaussianBlur stdDeviation="0.0084903"/>
<feColorMatrix type="matrix" values="0 0 0 0 1 0 0 0 0 1 0 0 0 0 1 0 0 0 0.28 0"/>
<feBlend mode="normal" in2="BackgroundImageFix" result="effect1_dropShadow_1374_26069"/>
<feColorMatrix in="SourceAlpha" type="matrix" values="0 0 0 0 0 0 0 0 0 0 0 0 0 0 0 0 0 0 127 0" result="hardAlpha"/>
<feOffset dy="-0.0084903"/>
<feGaussianBlur stdDeviation="0.0084903"/>
<feColorMatrix type="matrix" values="0 0 0 0 1 0 0 0 0 1 0 0 0 0 1 0 0 0 0.56 0"/>
<feBlend mode="normal" in2="effect1_dropShadow_1374_26069" result="effect2_dropShadow_1374_26069"/>
<feBlend mode="normal" in="SourceGraphic" in2="effect2_dropShadow_1374_26069" result="shape"/>
<feColorMatrix in="SourceAlpha" type="matrix" values="0 0 0 0 0 0 0 0 0 0 0 0 0 0 0 0 0 0 127 0" result="hardAlpha"/>
<feOffset dx="-0.0084903" dy="0.0254708"/>
<feGaussianBlur stdDeviation="0.0127354"/>
<feComposite in2="hardAlpha" operator="arithmetic" k2="-1" k3="1"/>
<feColorMatrix type="matrix" values="0 0 0 0 0 0 0 0 0 0 0 0 0 0 0 0 0 0 0.75 0"/>
<feBlend mode="normal" in2="shape" result="effect3_innerShadow_1374_26069"/>
</filter>
<filter id="filter12_di_1374_26069" x="10.0517" y="11.0146" width="2.24709" height="1.35305" filterUnits="userSpaceOnUse" color-interpolation-filters="sRGB">
<feFlood flood-opacity="0" result="BackgroundImageFix"/>
<feColorMatrix in="SourceAlpha" type="matrix" values="0 0 0 0 0 0 0 0 0 0 0 0 0 0 0 0 0 0 127 0" result="hardAlpha"/>
<feOffset dy="0.00878007"/>
<feGaussianBlur stdDeviation="0.00439002"/>
<feColorMatrix type="matrix" values="0 0 0 0 0.925374 0 0 0 0 0.925374 0 0 0 0 0.925374 0 0 0 0.37 0"/>
<feBlend mode="normal" in2="BackgroundImageFix" result="effect1_dropShadow_1374_26069"/>
<feBlend mode="normal" in="SourceGraphic" in2="effect1_dropShadow_1374_26069" result="shape"/>
<feColorMatrix in="SourceAlpha" type="matrix" values="0 0 0 0 0 0 0 0 0 0 0 0 0 0 0 0 0 0 127 0" result="hardAlpha"/>
<feOffset dx="-0.033961" dy="0.0424513"/>
<feGaussianBlur stdDeviation="0.0169805"/>
<feComposite in2="hardAlpha" operator="arithmetic" k2="-1" k3="1"/>
<feColorMatrix type="matrix" values="0 0 0 0 0 0 0 0 0 0 0 0 0 0 0 0 0 0 0.8 0"/>
<feBlend mode="normal" in2="shape" result="effect2_innerShadow_1374_26069"/>
</filter>
<filter id="filter13_di_1374_26069" x="10.7068" y="10.4622" width="1.58302" height="0.538233" filterUnits="userSpaceOnUse" color-interpolation-filters="sRGB">
<feFlood flood-opacity="0" result="BackgroundImageFix"/>
<feColorMatrix in="SourceAlpha" type="matrix" values="0 0 0 0 0 0 0 0 0 0 0 0 0 0 0 0 0 0 127 0" result="hardAlpha"/>
<feOffset dy="0.00878007"/>
<feGaussianBlur stdDeviation="0.00439002"/>
<feColorMatrix type="matrix" values="0 0 0 0 0.925374 0 0 0 0 0.925374 0 0 0 0 0.925374 0 0 0 0.37 0"/>
<feBlend mode="normal" in2="BackgroundImageFix" result="effect1_dropShadow_1374_26069"/>
<feBlend mode="normal" in="SourceGraphic" in2="effect1_dropShadow_1374_26069" result="shape"/>
<feColorMatrix in="SourceAlpha" type="matrix" values="0 0 0 0 0 0 0 0 0 0 0 0 0 0 0 0 0 0 127 0" result="hardAlpha"/>
<feOffset dx="-0.033961" dy="0.0424513"/>
<feGaussianBlur stdDeviation="0.0169805"/>
<feComposite in2="hardAlpha" operator="arithmetic" k2="-1" k3="1"/>
<feColorMatrix type="matrix" values="0 0 0 0 0 0 0 0 0 0 0 0 0 0 0 0 0 0 0.8 0"/>
<feBlend mode="normal" in2="shape" result="effect2_innerShadow_1374_26069"/>
</filter>
<filter id="filter14_f_1374_26069" x="7.52518" y="12.157" width="2.82611" height="1.25921" filterUnits="userSpaceOnUse" color-interpolation-filters="sRGB">
<feFlood flood-opacity="0" result="BackgroundImageFix"/>
<feBlend mode="normal" in="SourceGraphic" in2="BackgroundImageFix" result="shape"/>
<feGaussianBlur stdDeviation="0.0594317" result="effect1_foregroundBlur_1374_26069"/>
</filter>
<filter id="filter15_f_1374_26069" x="6.79126" y="11.4048" width="1.25243" height="1.46777" filterUnits="userSpaceOnUse" color-interpolation-filters="sRGB">
<feFlood flood-opacity="0" result="BackgroundImageFix"/>
<feBlend mode="normal" in="SourceGraphic" in2="BackgroundImageFix" result="shape"/>
<feGaussianBlur stdDeviation="0.0382061" result="effect1_foregroundBlur_1374_26069"/>
</filter>
<filter id="filter16_di_1374_26069" x="10.8932" y="12.2401" width="0.203002" height="0.172299" filterUnits="userSpaceOnUse" color-interpolation-filters="sRGB">
<feFlood flood-opacity="0" result="BackgroundImageFix"/>
<feColorMatrix in="SourceAlpha" type="matrix" values="0 0 0 0 0 0 0 0 0 0 0 0 0 0 0 0 0 0 127 0" result="hardAlpha"/>
<feOffset dy="-0.00421098"/>
<feGaussianBlur stdDeviation="0.0021055"/>
<feColorMatrix type="matrix" values="0 0 0 0 0.78755 0 0 0 0 0.78755 0 0 0 0 0.78755 0 0 0 0.19 0"/>
<feBlend mode="normal" in2="BackgroundImageFix" result="effect1_dropShadow_1374_26069"/>
<feBlend mode="normal" in="SourceGraphic" in2="effect1_dropShadow_1374_26069" result="shape"/>
<feColorMatrix in="SourceAlpha" type="matrix" values="0 0 0 0 0 0 0 0 0 0 0 0 0 0 0 0 0 0 127 0" result="hardAlpha"/>
<feOffset dy="0.021055"/>
<feGaussianBlur stdDeviation="0.0105275"/>
<feComposite in2="hardAlpha" operator="arithmetic" k2="-1" k3="1"/>
<feColorMatrix type="matrix" values="0 0 0 0 0 0 0 0 0 0 0 0 0 0 0 0 0 0 0.74 0"/>
<feBlend mode="normal" in2="shape" result="effect2_innerShadow_1374_26069"/>
</filter>
<filter id="filter17_di_1374_26069" x="11.7924" y="11.8156" width="0.203002" height="0.172299" filterUnits="userSpaceOnUse" color-interpolation-filters="sRGB">
<feFlood flood-opacity="0" result="BackgroundImageFix"/>
<feColorMatrix in="SourceAlpha" type="matrix" values="0 0 0 0 0 0 0 0 0 0 0 0 0 0 0 0 0 0 127 0" result="hardAlpha"/>
<feOffset dy="-0.00421098"/>
<feGaussianBlur stdDeviation="0.0021055"/>
<feColorMatrix type="matrix" values="0 0 0 0 0.78755 0 0 0 0 0.78755 0 0 0 0 0.78755 0 0 0 0.19 0"/>
<feBlend mode="normal" in2="BackgroundImageFix" result="effect1_dropShadow_1374_26069"/>
<feBlend mode="normal" in="SourceGraphic" in2="effect1_dropShadow_1374_26069" result="shape"/>
<feColorMatrix in="SourceAlpha" type="matrix" values="0 0 0 0 0 0 0 0 0 0 0 0 0 0 0 0 0 0 127 0" result="hardAlpha"/>
<feOffset dy="0.021055"/>
<feGaussianBlur stdDeviation="0.0105275"/>
<feComposite in2="hardAlpha" operator="arithmetic" k2="-1" k3="1"/>
<feColorMatrix type="matrix" values="0 0 0 0 0 0 0 0 0 0 0 0 0 0 0 0 0 0 0.74 0"/>
<feBlend mode="normal" in2="shape" result="effect2_innerShadow_1374_26069"/>
</filter>
<filter id="filter18_f_1374_26069" x="10.2399" y="12.1965" width="1.79752" height="1.33402" filterUnits="userSpaceOnUse" color-interpolation-filters="sRGB">
<feFlood flood-opacity="0" result="BackgroundImageFix"/>
<feBlend mode="normal" in="SourceGraphic" in2="BackgroundImageFix" result="shape"/>
<feGaussianBlur stdDeviation="0.0127354" result="effect1_foregroundBlur_1374_26069"/>
</filter>
<filter id="filter19_f_1374_26069" x="6.616" y="12.527" width="1.90595" height="1.23212" filterUnits="userSpaceOnUse" color-interpolation-filters="sRGB">
<feFlood flood-opacity="0" result="BackgroundImageFix"/>
<feBlend mode="normal" in="SourceGraphic" in2="BackgroundImageFix" result="shape"/>
<feGaussianBlur stdDeviation="0.0212257" result="effect1_foregroundBlur_1374_26069"/>
</filter>
<filter id="filter20_ddii_1374_26069" x="6.57684" y="12.6625" width="2.34487" height="1.21882" filterUnits="userSpaceOnUse" color-interpolation-filters="sRGB">
<feFlood flood-opacity="0" result="BackgroundImageFix"/>
<feColorMatrix in="SourceAlpha" type="matrix" values="0 0 0 0 0 0 0 0 0 0 0 0 0 0 0 0 0 0 127 0" result="hardAlpha"/>
<feOffset dy="0.00792553"/>
<feGaussianBlur stdDeviation="0.00528367"/>
<feColorMatrix type="matrix" values="0 0 0 0 0 0 0 0 0 0 0 0 0 0 0 0 0 0 0.57 0"/>
<feBlend mode="normal" in2="BackgroundImageFix" result="effect1_dropShadow_1374_26069"/>
<feColorMatrix in="SourceAlpha" type="matrix" values="0 0 0 0 0 0 0 0 0 0 0 0 0 0 0 0 0 0 127 0" result="hardAlpha"/>
<feOffset dy="-0.00528367"/>
<feGaussianBlur stdDeviation="0.00528367"/>
<feColorMatrix type="matrix" values="0 0 0 0 0 0 0 0 0 0 0 0 0 0 0 0 0 0 1 0"/>
<feBlend mode="normal" in2="effect1_dropShadow_1374_26069" result="effect2_dropShadow_1374_26069"/>
<feBlend mode="normal" in="SourceGraphic" in2="effect2_dropShadow_1374_26069" result="shape"/>
<feColorMatrix in="SourceAlpha" type="matrix" values="0 0 0 0 0 0 0 0 0 0 0 0 0 0 0 0 0 0 127 0" result="hardAlpha"/>
<feOffset dy="0.0728416"/>
<feGaussianBlur stdDeviation="0.0742336"/>
<feComposite in2="hardAlpha" operator="arithmetic" k2="-1" k3="1"/>
<feColorMatrix type="matrix" values="0 0 0 0 0 0 0 0 0 0 0 0 0 0 0 0 0 0 1 0"/>
<feBlend mode="normal" in2="shape" result="effect3_innerShadow_1374_26069"/>
<feColorMatrix in="SourceAlpha" type="matrix" values="0 0 0 0 0 0 0 0 0 0 0 0 0 0 0 0 0 0 127 0" result="hardAlpha"/>
<feOffset dy="-0.00793759"/>
<feGaussianBlur stdDeviation="0.00793759"/>
<feComposite in2="hardAlpha" operator="arithmetic" k2="-1" k3="1"/>
<feColorMatrix type="matrix" values="0 0 0 0 0 0 0 0 0 0 0 0 0 0 0 0 0 0 1 0"/>
<feBlend mode="normal" in2="effect3_innerShadow_1374_26069" result="effect4_innerShadow_1374_26069"/>
</filter>
<filter id="filter21_d_1374_26069" x="7.90006" y="13.354" width="0.710621" height="0.287281" filterUnits="userSpaceOnUse" color-interpolation-filters="sRGB">
<feFlood flood-opacity="0" result="BackgroundImageFix"/>
<feColorMatrix in="SourceAlpha" type="matrix" values="0 0 0 0 0 0 0 0 0 0 0 0 0 0 0 0 0 0 127 0" result="hardAlpha"/>
<feOffset dx="0.00842194" dy="0.0104616"/>
<feGaussianBlur stdDeviation="0.00523083"/>
<feColorMatrix type="matrix" values="0 0 0 0 1 0 0 0 0 1 0 0 0 0 1 0 0 0 0.24 0"/>
<feBlend mode="normal" in2="BackgroundImageFix" result="effect1_dropShadow_1374_26069"/>
<feBlend mode="normal" in="SourceGraphic" in2="effect1_dropShadow_1374_26069" result="shape"/>
</filter>
<filter id="filter22_d_1374_26069" x="6.63492" y="12.7164" width="0.221363" height="0.270923" filterUnits="userSpaceOnUse" color-interpolation-filters="sRGB">
<feFlood flood-opacity="0" result="BackgroundImageFix"/>
<feColorMatrix in="SourceAlpha" type="matrix" values="0 0 0 0 0 0 0 0 0 0 0 0 0 0 0 0 0 0 127 0" result="hardAlpha"/>
<feOffset dx="0.00842194" dy="0.0104616"/>
<feGaussianBlur stdDeviation="0.00523083"/>
<feColorMatrix type="matrix" values="0 0 0 0 1 0 0 0 0 1 0 0 0 0 1 0 0 0 0.24 0"/>
<feBlend mode="normal" in2="BackgroundImageFix" result="effect1_dropShadow_1374_26069"/>
<feBlend mode="normal" in="SourceGraphic" in2="effect1_dropShadow_1374_26069" result="shape"/>
</filter>
<linearGradient id="paint0_linear_1374_26069" x1="10.1141" y1="14.6191" x2="10.3417" y2="14.1641" gradientUnits="userSpaceOnUse">
<stop stop-color="#3F3F3F"/>
<stop offset="1" stop-color="#5C5C5C"/>
</linearGradient>
<linearGradient id="paint1_linear_1374_26069" x1="10.0885" y1="14.588" x2="10.313" y2="14.1531" gradientUnits="userSpaceOnUse">
<stop stop-color="#AAAAAA"/>
<stop offset="1" stop-color="#C2C2C2"/>
</linearGradient>
<linearGradient id="paint2_linear_1374_26069" x1="12.7581" y1="13.0118" x2="12.8753" y2="12.6082" gradientUnits="userSpaceOnUse">
<stop stop-color="#3F3F3F"/>
<stop offset="1" stop-color="#5C5C5C"/>
</linearGradient>
<linearGradient id="paint3_linear_1374_26069" x1="12.6931" y1="13.0402" x2="12.8285" y2="12.6573" gradientUnits="userSpaceOnUse">
<stop stop-color="#AAAAAA"/>
<stop offset="1" stop-color="#C2C2C2"/>
</linearGradient>
<linearGradient id="paint4_linear_1374_26069" x1="9.37185" y1="14.2551" x2="6.3728" y2="10.7841" gradientUnits="userSpaceOnUse">
<stop stop-color="#D8D8D8"/>
<stop offset="1" stop-color="white"/>
</linearGradient>
<linearGradient id="paint5_linear_1374_26069" x1="8.98691" y1="9.83299" x2="10.6841" y2="11.359" gradientUnits="userSpaceOnUse">
<stop stop-color="#E8EAE9"/>
<stop offset="0.498386" stop-color="#707072"/>
<stop offset="1" stop-color="#2F3032"/>
</linearGradient>
<linearGradient id="paint6_linear_1374_26069" x1="11.8415" y1="15.0171" x2="10.1845" y2="12.1635" gradientUnits="userSpaceOnUse">
<stop stop-color="#E8EAE9"/>
<stop offset="0.498386" stop-color="#707072"/>
<stop offset="1" stop-color="#2F3032"/>
</linearGradient>
<linearGradient id="paint7_linear_1374_26069" x1="12.4407" y1="12.0092" x2="11.5249" y2="10.7396" gradientUnits="userSpaceOnUse">
<stop stop-color="#E8EAE9"/>
<stop offset="0.498386" stop-color="#707072"/>
<stop offset="1" stop-color="#2F3032"/>
</linearGradient>
<linearGradient id="paint8_linear_1374_26069" x1="9.03984" y1="13.3349" x2="8.81885" y2="12.7388" gradientUnits="userSpaceOnUse">
<stop stop-color="#ECEAEA"/>
<stop offset="1" stop-color="white" stop-opacity="0"/>
</linearGradient>
<linearGradient id="paint9_linear_1374_26069" x1="6.67544" y1="12.3232" x2="7.45847" y2="12.5743" gradientUnits="userSpaceOnUse">
<stop stop-color="#ECEAEA"/>
<stop offset="1" stop-color="white" stop-opacity="0"/>
</linearGradient>
<linearGradient id="paint10_linear_1374_26069" x1="10.8882" y1="13.3913" x2="10.642" y2="12.9005" gradientUnits="userSpaceOnUse">
<stop stop-color="#040404"/>
<stop offset="1" stop-color="#3C3C3C" stop-opacity="0"/>
</linearGradient>
<linearGradient id="paint11_linear_1374_26069" x1="7.55745" y1="13.4461" x2="7.68931" y2="13.1729" gradientUnits="userSpaceOnUse">
<stop stop-color="#4B4B4B"/>
<stop offset="0.899322" stop-opacity="0"/>
</linearGradient>
</defs>
</svg>
